<?xml version="1.0" standalone="no"?>
<!DOCTYPE svg PUBLIC "-//W3C//DTD SVG 1.1//EN" "http://www.w3.org/Graphics/SVG/1.1/DTD/svg11.dtd" >
<svg xmlns="http://www.w3.org/2000/svg">
<metadata>Generated by IcoMoon</metadata>
<defs>
<font id="icomoon" horiz-adv-x="1024">
<font-face units-per-em="1024" ascent="960" descent="-64" />
<missing-glyph horiz-adv-x="1024" />
<glyph unicode="&#x20;" horiz-adv-x="512" d="" />
<glyph unicode="&#xe900;" glyph-name="icon-01" d="M682.667 789.333v153.6c0 9.421-7.646 17.067-17.067 17.067h-648.533c-9.421 0-17.067-7.646-17.067-17.067v-989.867c0-9.421 7.646-17.067 17.067-17.067h648.533c9.421 0 17.067 7.646 17.067 17.067v153.6c0 9.421-7.646 17.067-17.067 17.067s-17.067-7.646-17.067-17.067v-136.533h-614.4v955.733h614.4v-136.533c0-9.421 7.646-17.067 17.067-17.067s17.067 7.646 17.067 17.067zM1024 448c0 4.71-1.911 8.977-5.018 12.083l-238.899 238.933c-6.69 6.656-17.476 6.656-24.166 0-6.656-6.69-6.656-17.476 0-24.166l209.818-209.783h-607.334c-9.421 0-17.067-7.646-17.067-17.067s7.646-17.067 17.067-17.067h607.334l-209.818-209.783c-6.656-6.69-6.656-17.476 0-24.166 3.345-3.311 7.714-4.983 12.083-4.983s8.738 1.673 12.083 4.983l238.899 238.933c3.106 3.072 5.018 7.339 5.018 12.083z" />
<glyph unicode="&#xe901;" glyph-name="icon-02" d="M512 325.154c-9.421 0-17.067 7.646-17.067 17.067v300.237c0 9.455 7.646 17.067 17.067 17.067s17.067-7.612 17.067-17.067v-300.237c0-9.421-7.646-17.067-17.067-17.067zM512 112.913c-9.421 0-17.067 7.612-17.067 17.067v70.963c0 9.421 7.646 17.067 17.067 17.067s17.067-7.646 17.067-17.067v-70.963c0-9.455-7.646-17.067-17.067-17.067zM45.636 5.769h932.727l-466.364 866.202-466.364-866.202zM1006.933-28.365h-989.867c-6.007 0-11.571 3.174-14.643 8.294-3.106 5.188-3.209 11.571-0.375 16.862l494.933 919.279c5.939 11.059 24.098 11.059 30.037 0l494.933-919.279c2.833-5.291 2.731-11.674-0.341-16.862-3.106-5.12-8.67-8.294-14.677-8.294z" />
<glyph unicode="&#xe902;" glyph-name="icon-03" d="M671.164 312.695l-135.168 135.202 135.168 135.202c6.656 6.69 6.656 17.476 0 24.132-6.656 6.69-17.476 6.69-24.132 0l-135.168-135.202-135.134 135.202c-6.69 6.69-17.476 6.69-24.132 0-6.69-6.656-6.69-17.442 0-24.132l135.134-135.202-135.134-135.202c-6.69-6.69-6.69-17.476 0-24.132 6.656-6.69 17.442-6.69 24.132 0l135.134 135.202 135.168-135.202c3.345-3.345 7.68-5.018 12.049-5.018s8.738 1.673 12.083 5.018c6.656 6.656 6.656 17.442 0 24.132zM951.569 261.052c-75.196-176.742-247.808-290.918-439.74-290.918-64.239 0-127.078 12.902-186.709 38.298-117.453 49.937-208.384 142.575-256.068 260.915-47.718 118.34-46.455 248.183 3.516 365.602 75.059 176.708 247.603 290.918 439.603 290.918 64.273 0 127.113-12.902 186.846-38.298 117.316-49.869 208.247-142.541 255.932-260.915 47.718-118.34 46.49-248.218-3.379-365.602zM986.59 639.42c-51.132 126.839-148.514 226.099-274.261 279.552-63.898 27.204-131.277 41.028-200.158 41.028-205.722 0-390.588-122.368-471.006-311.706-53.555-125.815-54.886-264.909-3.789-391.714 51.132-126.805 148.582-226.099 274.398-279.552 63.863-27.238 131.174-41.028 200.055-41.028 205.653 0 390.588 122.368 471.142 311.706 53.453 125.781 54.75 264.909 3.618 391.714z" />
<glyph unicode="&#xe903;" glyph-name="icon-04" d="M456.567 219.58v-76.151c0-9.421 7.646-17.067 17.067-17.067s17.067 7.646 17.067 17.067v76.151c0 9.421-7.646 17.067-17.067 17.067s-17.067-7.646-17.067-17.067zM688.606 595.729c0 76.322-70.315 133.837-162.611 133.837h-0.068c-70.588 3.686-136.397-39.834-160.085-106.53-3.174-8.875 1.468-18.603 10.342-21.777 8.806-3.072 18.637 1.502 21.811 10.377 18.637 52.497 71.1 86.903 126.976 83.831 73.83 0 129.502-42.871 129.502-99.738 0-57.003-34.918-79.667-91.17-109.67-56.627-24.337-93.867-77.687-97.178-139.298-0.478-9.387 6.724-17.442 16.145-17.92 0.307-0.034 0.614-0.034 0.922-0.034 9.011 0 16.521 7.066 17.033 16.145 2.594 48.503 31.915 90.59 77.79 110.387 51.849 27.511 110.592 58.778 110.592 140.39zM989.867 448c0-194.048-115.78-367.343-294.98-441.481-58.334-24.132-119.808-36.386-182.784-36.386-127.625 0-247.603 49.698-337.852 139.947-137.045 137.114-177.698 341.538-103.526 520.738 74.103 179.234 247.364 295.049 441.378 295.049 263.441 0 477.764-214.357 477.764-477.867zM1024 448c0 282.317-229.615 512-511.898 512-207.872 0-393.489-124.075-472.917-316.109-79.462-192.034-35.908-411.034 110.933-557.943 96.7-96.666 225.246-149.948 361.984-149.948 67.447 0 133.359 13.141 195.823 39.014 192 79.428 316.075 265.079 316.075 472.986z" />
<glyph unicode="&#xe904;" glyph-name="icon-05" d="M530.91 712.363v70.963c0 9.421-7.646 17.067-17.067 17.067s-17.067-7.646-17.067-17.067v-70.963c0-9.455 7.646-17.067 17.067-17.067s17.067 7.612 17.067 17.067zM685.67 200.090c0 9.421-7.612 17.067-17.033 17.067h-137.728v339.217c0 9.421-7.646 17.067-17.067 17.067h-114.551c-9.421 0-17.067-7.646-17.067-17.067 0-9.455 7.646-17.067 17.067-17.067h97.485v-322.15h-141.653c-9.455 0-17.067-7.646-17.067-17.067 0-9.455 7.612-17.067 17.067-17.067h313.515c9.421 0 17.033 7.612 17.033 17.067zM951.569 261.052c-75.196-176.742-247.808-290.918-439.706-290.918-64.273 0-127.113 12.902-186.743 38.298-117.453 49.937-208.384 142.575-256.068 260.915-47.718 118.34-46.455 248.183 3.516 365.602 75.059 176.708 247.603 290.918 439.569 290.918 64.307 0 127.147-12.902 186.88-38.298 117.316-49.869 208.247-142.541 255.898-260.915 47.753-118.34 46.524-248.183-3.345-365.602zM986.59 639.42c-51.132 126.839-148.514 226.099-274.261 279.552-63.898 27.204-131.277 41.028-200.192 41.028-205.687 0-390.554-122.368-470.972-311.706-53.555-125.815-54.886-264.909-3.789-391.714 51.132-126.805 148.582-226.099 274.398-279.552 63.863-27.238 131.174-41.028 200.090-41.028 205.619 0 390.554 122.368 471.108 311.706 53.419 125.781 54.75 264.909 3.618 391.714z" />
<glyph unicode="&#xe905;" glyph-name="icon-06" d="M760.115 555.759c6.69 6.656 6.69 17.476 0 24.132-6.656 6.656-17.442 6.656-24.098 0l-282.419-282.18-117.35 117.077c-6.69 6.588-17.476 6.622-24.132-0.034-6.656-6.69-6.622-17.51 0.034-24.166l129.434-129.058c3.311-3.311 7.68-4.983 12.049-4.983s8.704 1.673 12.049 5.018l294.434 294.195zM951.569 261.052c-75.196-176.742-247.808-290.918-439.74-290.918-64.239 0-127.078 12.902-186.709 38.298-117.453 49.937-208.384 142.575-256.068 260.915-47.718 118.34-46.455 248.183 3.516 365.602 75.059 176.708 247.603 290.918 439.603 290.918 64.273 0 127.113-12.902 186.846-38.298 117.316-49.869 208.247-142.541 255.932-260.915 47.718-118.34 46.49-248.218-3.379-365.602zM986.59 639.42c-51.132 126.839-148.514 226.099-274.261 279.552-63.898 27.204-131.277 41.028-200.158 41.028-205.722 0-390.588-122.368-471.006-311.706-53.555-125.815-54.886-264.909-3.789-391.714 51.132-126.805 148.582-226.099 274.398-279.552 63.863-27.238 131.174-41.028 200.055-41.028 205.653 0 390.588 122.368 471.142 311.706 53.453 125.781 54.75 264.909 3.618 391.714z" />
<glyph unicode="&#xe906;" glyph-name="icon-07" d="M652.186 577.297c7.68 5.495 9.455 16.145 3.994 23.825l-43.349 60.757c-6.451 9.011-21.402 8.977-27.785 0l-29.423-41.301-29.491 41.301c-3.209 4.506-8.363 7.168-13.892 7.168s-10.684-2.662-13.892-7.168l-29.559-41.37-29.798 41.438c-3.209 4.437-8.363 7.1-13.858 7.1-6.212-1.024-10.684-2.662-13.892-7.168l-43.349-60.757c-5.495-7.68-3.721-18.33 3.959-23.825 3.004-2.15 6.451-3.174 9.899-3.174 5.325 0 10.581 2.492 13.892 7.168l29.525 41.37 29.833-41.438c3.174-4.437 8.363-7.1 13.824-7.1 5.257 0.102 10.684 2.662 13.892 7.168l29.525 41.301 29.491-41.301c6.417-9.011 21.367-9.011 27.785 0l29.423 41.301 29.457-41.301c5.461-7.714 16.145-9.421 23.791-3.994zM737.314 415.095c-25.088-29.525-40.141-66.97-42.428-106.633 0.171-29.73-8.704-59.085-24.371-84.617h-131.072l136.602 285.082c4.062 8.465 0.444 18.671-8.021 22.733-8.431 4.13-18.705 0.546-22.767-7.987l-133.734-279.108-132.71 279.074c-4.062 8.499-14.199 12.117-22.733 8.055-8.533-4.028-12.151-14.234-8.090-22.733l135.646-285.116h-127.147c-16.555 26.078-26.078 56.149-26.18 86.357 0.649 35.191-11.776 69.188-35.84 96.836-87.006 86.391-113.357 215.381-67.174 328.602 46.148 113.323 155.511 187.972 278.63 190.157 123.733 3.584 235.657-67.891 286.242-179.268 50.483-111.343 29.15-241.22-54.852-331.435zM381.099 189.713h261.564l0.034-64.922h-261.325c-0.034 0.785-0.273 1.638-0.273 2.389v62.532zM387.516 90.658h252.075c-12.868-54.852-61.713-120.525-127.147-120.525-58.095 0-108.169 64.034-124.928 120.525zM823.228 760.627c-56.218 123.802-181.623 202.001-317.952 199.305-136.772-2.423-258.287-85.436-309.555-211.422-51.439-125.986-22.084-269.551 73.865-364.783 17.647-20.275 27.102-46.182 26.59-73.25 0.171-43.247 15.087-86.084 41.916-120.695 2.287-2.901 5.598-4.096 8.875-5.052v-57.549c0-75.196 71.066-191.181 165.478-191.181 86.596 0 156.058 88.235 164.284 168.175 0.068 1.058-0.034 1.98 0 3.004 0.034 0.239 0.239 0.341 0.239 0.546 0 0.239-0.205 0.341-0.239 0.58 0.239 5.939 0.375 11.913 0.034 17.067v58.061c4.745 0.341 9.353 2.423 12.459 6.519 25.873 34.133 40.038 76.288 39.765 117.623 1.809 31.164 13.995 61.508 33.826 84.821 92.911 99.772 116.599 244.326 60.416 368.23z" />
<glyph unicode="&#xe907;" glyph-name="icon-08" d="M443.733 635.733c0-117.453-114.62-119.433-119.501-119.467h-170.633c-117.453 0-119.433 114.62-119.467 119.467v170.667c0 117.453 114.62 119.433 119.467 119.467h170.667c117.453 0 119.433-114.62 119.467-119.467v-170.667zM477.867 635.733v170.667c0 53.146-32.085 153.6-153.6 153.6h-170.667c-53.146 0-153.6-32.085-153.6-153.6v-170.667c0-53.146 32.085-153.6 153.6-153.6h170.667c53.146 0 153.6 32.085 153.6 153.6zM443.733 89.6c0-117.453-114.62-119.433-119.501-119.467h-170.633c-117.453 0-119.433 114.62-119.467 119.467v170.667c0 117.453 114.62 119.433 119.467 119.467h170.667c117.453 0 119.433-114.62 119.467-119.467v-170.667zM477.867 89.6v170.667c0 53.146-32.085 153.6-153.6 153.6h-170.667c-53.146 0-153.6-32.085-153.6-153.6v-170.667c0-53.146 32.085-153.6 153.6-153.6h170.667c53.146 0 153.6 32.085 153.6 153.6zM989.867 635.733c0-117.453-114.62-119.433-119.501-119.467h-170.633c-117.453 0-119.433 114.62-119.467 119.467v170.667c0 117.453 114.62 119.433 119.467 119.467h170.667c117.453 0 119.433-114.62 119.467-119.467v-170.667zM1024 635.733v170.667c0 53.146-32.085 153.6-153.6 153.6h-170.667c-53.146 0-153.6-32.085-153.6-153.6v-170.667c0-53.146 32.085-153.6 153.6-153.6h170.667c53.146 0 153.6 32.085 153.6 153.6zM989.867 89.6c0-117.453-114.62-119.433-119.501-119.467h-170.633c-117.453 0-119.433 114.62-119.467 119.467v170.667c0 117.453 114.62 119.433 119.467 119.467h170.667c117.453 0 119.433-114.62 119.467-119.467v-170.667zM1024 89.6v170.667c0 53.146-32.085 153.6-153.6 153.6h-170.667c-53.146 0-153.6-32.085-153.6-153.6v-170.667c0-53.146 32.085-153.6 153.6-153.6h170.667c53.146 0 153.6 32.085 153.6 153.6z" />
<glyph unicode="&#xe908;" glyph-name="icon-09" d="M276.275-64c-64.068-0.034-123.938 29.491-166.537 72.090-77.585 77.585-111.718 212.446-3.345 325.257l571.699 570.812c33.007 35.089 78.234 55.057 126.839 55.808 50.381 1.058 94.549-17.818 129.024-52.326 34.338-34.202 52.975-79.77 52.429-128.307-0.546-48.811-20.343-94.208-55.74-127.829l-571.767-571.119c-22.972-24.781-54.852-39.049-89.293-39.663-35.26 0.137-66.389 12.425-90.487 36.659-24.235 24.235-37.239 56.422-36.557 90.658 0.649 34.304 14.882 66.048 40.107 89.429l274.5 274.398c6.656 6.656 17.476 6.656 24.132 0s6.656-17.442 0-24.132l-274.944-274.842c-18.842-17.442-29.184-40.55-29.662-65.502-0.478-24.883 8.977-48.299 26.59-65.911 17.51-17.647 40.789-27.819 65.741-26.624 25.054 0.444 48.23 10.786 65.297 29.184l572.518 571.87c28.945 27.546 44.988 64.307 45.431 103.799 0.444 39.253-14.609 76.117-42.428 103.765-27.921 27.955-65.126 43.281-104.346 42.359-39.322-0.614-75.913-16.725-102.912-45.431l-571.802-570.948c-92.194-95.983-63.078-211.046 3.14-277.265 66.185-66.15 181.316-95.334 277.709-2.935l275.115 274.842c6.69 6.69 17.476 6.69 24.132 0 6.69-6.656 6.69-17.442 0-24.098l-275.354-275.081c-51.063-48.981-106.564-68.915-159.232-68.915z" />
<glyph unicode="&#xe909;" glyph-name="icon-10" d="M874.052 592.964v-622.831h-216.713v336.691c0 9.421-7.646 17.067-17.067 17.067h-256.546c-9.421 0-17.067-7.646-17.067-17.067v-336.691h-220.877v619.042l366.217 330.752 362.052-326.963zM1018.368 508.621l-494.933 446.976c-6.519 5.871-16.384 5.871-22.869 0l-494.933-446.976c-6.997-6.315-7.543-17.101-1.229-24.098 6.315-7.031 17.135-7.543 24.098-1.229l83.149 75.059v-605.286c0-9.455 7.612-17.067 17.067-17.067h255.010c9.455 0 17.067 7.612 17.067 17.067v336.691h222.413v-336.691c0-9.455 7.612-17.067 17.067-17.067h250.846c9.455 0 17.067 7.612 17.067 17.067v609.075l87.313-78.848c3.277-2.97 7.373-4.403 11.435-4.403 4.676 0 9.318 1.911 12.663 5.632 6.315 6.997 5.769 17.783-1.229 24.098z" />
<glyph unicode="&#xe90a;" glyph-name="icon-11" d="M378.641 621.295c-19.627 0-31.983-12.732-36.932-24.678-4.983-11.947-5.291-29.73 8.636-43.759 13.995-13.892 31.812-13.551 43.759-8.602 11.913 4.949 24.644 17.271 24.678 36.966-0.171 21.948-18.159 39.936-40.141 40.073zM378.266 506.846c-19.081 0-37.581 7.543-52.019 21.879-21.641 21.743-27.75 52.77-16.009 80.998 11.708 28.194 37.956 45.705 68.54 45.705 40.687-0.239 73.899-33.485 74.172-74.069v-0.102c0-30.549-17.51-56.798-45.705-68.54-9.523-3.925-19.319-5.871-28.979-5.871zM349.286 198.554h330.274l-77.107 262.212-94.481-173.227c-2.594-4.745-7.236-7.987-12.561-8.738-5.359-0.649-10.718 1.024-14.507 4.847l-59.392 59.426-72.226-144.521zM702.327 164.42h-380.655c-5.939 0-11.401 3.072-14.541 8.124-3.106 5.018-3.379 11.298-0.751 16.589l95.164 190.362c2.458 4.915 7.134 8.329 12.561 9.216 5.461 0.99 10.923-0.922 14.78-4.779l60.041-60.041 103.287 189.406c3.311 6.042 9.694 9.489 16.828 8.772 6.827-0.717 12.595-5.53 14.507-12.117l95.164-323.652c1.536-5.12 0.546-10.718-2.697-15.019s-8.329-6.861-13.687-6.861zM148.378-29.867h727.279v689.22h-249.446c-9.421 0-17.067 7.612-17.067 17.067v249.446h-460.766v-955.733zM892.689-64h-761.378c-9.421 0-17.067 7.646-17.067 17.067v989.867c0 9.421 7.646 17.067 17.067 17.067h494.899c9.455 0 17.067-7.646 17.067-17.067v-249.446h208.247l-161.246 161.212c-6.656 6.69-6.656 17.476 0 24.166 6.69 6.656 17.476 6.656 24.132 0l190.396-190.396c0.034-0.068 0.102-0.137 0.171-0.205 0 0 0.137 0.102 0.034-0.034h0.034v-0.034h0.034v-0.034h0.034v-0.034c2.867-3.038 4.676-7.134 4.676-11.674v-723.388c-0.034-9.421-7.68-17.067-17.101-17.067z" />
<glyph unicode="&#xe90b;" glyph-name="icon-12" d="M338.705 474.59h83.831v70.554h-83.831v-70.554zM456.67 474.59h227.465v70.554h-227.465v-70.554zM338.705 369.869h83.831v70.588h-83.831v-70.588zM456.67 369.869h227.465v70.588h-227.465v-70.588zM338.705 265.182h83.831v70.554h-83.831v-70.554zM456.67 265.182h227.465v70.554h-227.465v-70.554zM338.705 160.495h83.831v70.554h-83.831v-70.554zM456.67 160.495h227.465v70.554h-227.465v-70.554zM701.201 126.362h-379.563c-9.421 0-17.067 7.646-17.067 17.067v418.782c0 9.455 7.646 17.067 17.067 17.067h379.563c9.455 0 17.067-7.612 17.067-17.067v-418.782c0-9.421-7.612-17.067-17.067-17.067zM148.343-29.867h726.903l0.41 689.22h-249.446c-9.421 0-17.067 7.612-17.067 17.067v249.446h-460.8v-955.733zM892.314-64h-761.037c-9.421 0-17.067 7.646-17.067 17.067v989.867c0 9.421 7.646 17.067 17.067 17.067h494.933c9.421 0 17.067-7.646 17.067-17.067v-249.446h208.247l-161.212 161.212c-6.656 6.69-6.656 17.476 0 24.166 6.656 6.656 17.476 6.656 24.132 0l190.327-190.396c0.068-0.068 0.137-0.102 0.171-0.171 0.034 0 0.034 0 0.034-0.034 0 0 0.137-0.068 0.034 0 0-0.034 0.034-0.034 0.034-0.034 0-0.034 0.034-0.034 0.034-0.034 2.867-3.038 4.676-7.134 4.71-11.639v-0.171l-0.41-723.319c0-9.421-7.646-17.067-17.067-17.067z" />
<glyph unicode="&#xe90c;" glyph-name="icon-13" d="M148.343-29.867h726.903l0.41 689.22h-249.446c-9.421 0-17.067 7.612-17.067 17.067v249.446h-460.8v-955.733zM892.314-64h-761.037c-9.421 0-17.067 7.646-17.067 17.067v989.867c0 9.421 7.646 17.067 17.067 17.067h494.933c9.421 0 17.067-7.646 17.067-17.067v-249.446h208.247l-161.212 161.212c-6.656 6.69-6.656 17.476 0 24.166 6.656 6.656 17.476 6.656 24.132 0l190.327-190.396c0.068-0.068 0.137-0.102 0.171-0.171 0.034 0 0.034 0 0.034-0.034 0 0 0.137-0.068 0.034 0 0-0.034 0.034-0.034 0.034-0.034 0-0.034 0.034-0.034 0.034-0.034 2.867-3.038 4.676-7.134 4.71-11.639v-0.171l-0.41-723.319c0-9.421-7.646-17.067-17.067-17.067z" />
<glyph unicode="&#xe90d;" glyph-name="icon-14" d="M492.305 637.781c-3.823 0-7.714-2.185-11.298-9.899-8.602-18.705-8.090-52.019 3.482-89.259 13.824 45.909 20.412 84.753 12.8 98.133-1.604 0.58-3.277 1.024-4.983 1.024zM489.062 451.038c-14.063-34.441-26.078-59.187-26.419-59.87v-0.034c-3.686-7.27-7.543-15.599-11.639-24.576 10.684 3.618 20.855 6.519 30.242 8.636 22.596 5.12 43.793 9.489 63.659 13.107-6.417 5.564-12.561 11.264-18.364 17.033-14.302 14.302-26.761 29.764-37.478 45.705zM634.914 366.217c34.679-19.115 65.57-28.331 80.589-23.518 3.925 1.195 6.588 3.243 7.782 9.523 0.58 3.447-0.444 4.403-1.399 5.359-8.431 8.055-35.874 12.902-86.972 8.636zM381.747 298.189c-36.898-21.094-66.048-44.817-71.305-61.577-1.161-3.618-0.341-4.506 0.614-5.53 7.305-7.236 12.049-6.383 13.892-6.007 17.442 3.277 38.298 36.659 56.798 73.114zM322.97 190.737c-10.308 0-23.347 3.618-36.523 16.725-10.274 11.196-13.107 24.951-8.567 39.322 11.025 35.26 69.257 74.957 127.59 101.649 1.911 4.198 3.686 8.226 5.427 12.117 7.646 17.135 14.78 33.041 21.231 45.909 12.561 25.156 24.849 53.794 35.43 82.227-28.126 58.436-33.826 118.17-17.545 153.463 9.591 20.821 26.59 31.983 47.241 30.31 12.766-0.956 23.347-7.612 29.73-18.842 17.92-31.573-0.683-102.298-22.391-162.372 11.605-21.333 26.863-42.53 46.012-61.747 12.493-12.356 25.805-23.723 39.287-33.894 82.159 11.401 134.246 6.963 155.546-13.346 9.796-9.353 13.892-22.187 11.401-36.147-3.379-18.091-14.473-30.822-31.198-36.011-34.714-10.82-92.843 13.551-144.282 49.664-26.658-4.096-57.412-9.899-92.57-17.818-18.125-4.164-37.888-10.889-57.446-19.183-28.092-61.781-59.972-123.767-100.147-131.277-2.458-0.444-5.222-0.751-8.226-0.751zM148.343-29.867h726.903l0.41 689.22h-249.446c-9.421 0-17.067 7.612-17.067 17.067v249.446h-460.8v-955.733zM892.314-64h-761.037c-9.455 0-17.067 7.646-17.067 17.067v989.867c0 9.421 7.612 17.067 17.067 17.067h494.933c9.421 0 17.067-7.646 17.067-17.067v-249.446h208.247l-161.246 161.212c-6.656 6.69-6.656 17.476 0 24.166 6.656 6.656 17.476 6.656 24.132 0l190.362-190.396c0.068-0.068 0.137-0.137 0.205-0.205 0 0 0.137 0.102 0.034-0.034h0.034v-0.034h0.034v-0.034h0.034v-0.034c2.867-3.004 4.642-7.066 4.676-11.571v-0.171l-0.41-723.319c0-9.421-7.646-17.067-17.067-17.067z" />
<glyph unicode="&#xe90e;" glyph-name="icon-15" d="M702.362 164.42h-381.884c-9.455 0-17.067 7.646-17.067 17.067v400.589c0 9.421 7.612 17.067 17.067 17.067 9.421 0 17.067-7.646 17.067-17.067v-254.703l109.841 109.909c5.769 5.734 14.848 6.622 21.606 2.116l91.853-61.713 120.32 128.785c6.451 6.895 17.203 7.236 24.132 0.819 6.861-6.451 7.202-17.237 0.785-24.132l-130.219-139.401c-5.769-6.11-15.019-7.236-21.982-2.492l-92.262 61.986-124.075-124.143v-80.555h364.817c9.421 0 17.067-7.612 17.067-17.067 0-9.421-7.646-17.067-17.067-17.067zM148.343-29.867h726.903l0.41 689.22h-249.446c-9.421 0-17.067 7.646-17.067 17.067v249.446h-460.8v-955.733zM892.314-64h-761.037c-9.455 0-17.067 7.646-17.067 17.067v989.867c0 9.421 7.612 17.067 17.067 17.067h494.933c9.421 0 17.067-7.646 17.067-17.067v-249.446h208.247l-161.246 161.246c-6.656 6.656-6.656 17.476 0 24.132s17.476 6.656 24.132 0l190.362-190.362c0.068-0.068 0.137-0.137 0.205-0.205 0-0.034 0.137 0.068 0.034-0.034h0.034v-0.034c0 0 0.034 0 0.034-0.034l0.034-0.034c2.867-3.038 4.642-7.1 4.676-11.571v-0.171l-0.41-723.354c0-9.421-7.646-17.067-17.067-17.067z" />
<glyph unicode="&#xe90f;" glyph-name="icon-16" d="M474.317 659.354h-161.792c-9.455 0-17.067 7.612-17.067 17.067 0 9.421 7.612 17.067 17.067 17.067h161.792c9.455 0 17.067-7.646 17.067-17.067 0-9.455-7.612-17.067-17.067-17.067zM712.294 481.485h-399.77c-9.455 0-17.067 7.646-17.067 17.067s7.612 17.067 17.067 17.067h399.77c9.421 0 17.067-7.646 17.067-17.067s-7.646-17.067-17.067-17.067zM712.294 304.23h-399.77c-9.455 0-17.067 7.646-17.067 17.067 0 9.455 7.612 17.067 17.067 17.067h399.77c9.421 0 17.067-7.612 17.067-17.067 0-9.421-7.646-17.067-17.067-17.067zM712.294 126.362h-399.77c-9.455 0-17.067 7.646-17.067 17.067 0 9.455 7.612 17.067 17.067 17.067h399.77c9.421 0 17.067-7.612 17.067-17.067 0-9.421-7.646-17.067-17.067-17.067zM148.378-29.867h726.835l0.444 689.22h-249.446c-9.421 0-17.067 7.612-17.067 17.067v249.446h-460.766v-955.733zM892.279-64h-760.969c-9.455 0-17.067 7.646-17.067 17.067v989.867c0 9.421 7.612 17.067 17.067 17.067h494.899c9.455 0 17.067-7.646 17.067-17.067v-249.446h208.247l-161.246 161.212c-6.656 6.69-6.656 17.476 0 24.166 6.656 6.656 17.476 6.656 24.132 0l190.362-190.396c0.102-0.068 0.239-0.205 0.341-0.307 0 0 0-0.034 0.034-0.034 0-0.034 0-0.034 0.034-0.034v-0.034c0 0.034 0.034-0.034 0.034-0.034 0.034 0 0.034-0.034 0.034-0.034 2.765-3.004 4.471-6.997 4.54-11.366v-0.239l-0.444-723.319c0-9.421-7.646-17.067-17.067-17.067z" />
<glyph unicode="&#xe910;" glyph-name="icon-17" d="M511.966 840.192h-42.189c-9.455 0-17.067 7.612-17.067 17.067 0 9.421 7.612 17.067 17.067 17.067h42.189c9.455 0 17.067-7.646 17.067-17.067 0-9.455-7.612-17.067-17.067-17.067zM555.008 793.429h-43.042c-9.421 0-17.067 7.612-17.067 17.067 0 9.421 7.646 17.067 17.067 17.067h43.042c9.455 0 17.067-7.646 17.067-17.067 0-9.455-7.612-17.067-17.067-17.067zM511.966 746.633h-42.189c-9.455 0-17.067 7.612-17.067 17.067 0 9.421 7.612 17.067 17.067 17.067h42.189c9.455 0 17.067-7.646 17.067-17.067 0-9.455-7.612-17.067-17.067-17.067zM555.008 699.836h-43.042c-9.421 0-17.067 7.646-17.067 17.067s7.646 17.067 17.067 17.067h43.042c9.455 0 17.067-7.646 17.067-17.067s-7.612-17.067-17.067-17.067zM511.966 652.8h-42.189c-9.455 0-17.067 7.646-17.067 17.067 0 9.455 7.612 17.067 17.067 17.067h42.189c9.455 0 17.067-7.612 17.067-17.067 0-9.421-7.612-17.067-17.067-17.067zM555.008 606.037h-43.042c-9.421 0-17.067 7.646-17.067 17.067s7.646 17.067 17.067 17.067h43.042c9.455 0 17.067-7.646 17.067-17.067s-7.612-17.067-17.067-17.067zM511.966 559.206h-42.633c-9.421 0-17.067 7.612-17.067 17.067 0 9.421 7.646 17.067 17.067 17.067h42.633c9.455 0 17.067-7.646 17.067-17.067 0-9.455-7.612-17.067-17.067-17.067zM555.008 512.819h-43.042c-9.421 0-17.067 7.646-17.067 17.067s7.646 17.067 17.067 17.067h43.042c9.455 0 17.067-7.646 17.067-17.067s-7.612-17.067-17.067-17.067zM511.966 466.022h-42.633c-9.421 0-17.067 7.612-17.067 17.067 0 9.421 7.646 17.067 17.067 17.067h42.633c9.455 0 17.067-7.646 17.067-17.067 0-9.455-7.612-17.067-17.067-17.067zM555.008 419.055h-43.042c-9.421 0-17.067 7.612-17.067 17.067 0 9.421 7.646 17.067 17.067 17.067h43.042c9.455 0 17.067-7.646 17.067-17.067 0-9.455-7.612-17.067-17.067-17.067zM511.966 372.224h-42.633c-9.421 0-17.067 7.646-17.067 17.067 0 9.455 7.646 17.067 17.067 17.067h42.633c9.455 0 17.067-7.612 17.067-17.067 0-9.421-7.612-17.067-17.067-17.067zM555.008 325.461h-43.042c-9.421 0-17.067 7.646-17.067 17.067s7.646 17.067 17.067 17.067h43.042c9.455 0 17.067-7.646 17.067-17.067s-7.612-17.067-17.067-17.067zM511.966 278.665h-42.189c-9.455 0-17.067 7.646-17.067 17.067s7.612 17.067 17.067 17.067h42.189c9.455 0 17.067-7.646 17.067-17.067s-7.612-17.067-17.067-17.067zM453.154 66.185c2.116-7.134 16.418-19.934 58.812-19.934 41.813 0 56.32 12.459 58.778 20.241l-33.997 136.021h-49.493l-34.099-136.329zM511.966 12.117c-92.092 0-93.184 52.907-93.184 55.194 0 1.399 0.171 2.799 0.546 4.13l38.059 152.269c1.911 7.578 8.704 12.937 16.555 12.937h76.151c7.817 0 14.643-5.359 16.555-12.937l38.059-152.269c0.341-1.331 0.512-2.731 0.512-4.13 0-2.287-1.058-55.194-93.252-55.194zM148.343-29.867h726.903l0.41 689.254h-249.481c-9.421 0-17.067 7.646-17.067 17.067v249.412h-460.766v-955.733zM892.314-64h-761.037c-9.455 0-17.067 7.646-17.067 17.067v989.867c0 9.421 7.612 17.067 17.067 17.067h494.899c9.421 0 17.067-7.646 17.067-17.067v-249.412h208.282l-161.246 161.212c-6.656 6.656-6.656 17.476 0 24.132s17.476 6.656 24.132 0l190.327-190.293c3.072-3.072 5.018-7.27 5.052-11.981v-0.171l-0.41-723.354c0-9.421-7.646-17.067-17.067-17.067z" />
<glyph unicode="&#xe911;" glyph-name="icon-18" d="M496.947 205.687c-8.499-4.096-12.049-14.302-7.953-22.801 28.331-58.607 88.713-96.529 154.146-96.529 124.006 2.389 168.175 82.091 168.175 155.887 0 92.092-81.135 131.277-144.35 143.394l119.808 121.924c4.813 4.881 6.212 12.22 3.55 18.569-2.662 6.315-8.841 10.445-15.735 10.445h-244.975c-9.455 0-17.067-7.612-17.067-17.067 0-9.421 7.612-17.067 17.067-17.067h204.288l-115.61-117.623c-4.71-4.813-6.178-11.947-3.686-18.227 2.458-6.281 8.431-10.479 15.155-10.786 1.468-0.034 147.422-7.236 147.422-113.562 0-35.84-13.141-119.433-134.383-121.754-52.087 0-100.386 30.345-123.051 77.278-4.096 8.465-14.302 12.083-22.801 7.919zM178.551 116.224c0-9.421 7.646-17.067 17.067-17.067h219.955c9.455 0 17.067 7.646 17.067 17.067 0 9.455-7.612 17.067-17.067 17.067h-92.911v386.219c0 5.495-2.628 10.65-7.066 13.858-4.506 3.209-10.24 4.13-15.394 2.321l-109.978-36.659c-8.943-2.97-13.756-12.629-10.786-21.572 2.97-8.909 12.595-13.824 21.606-10.786l87.484 29.15v-362.53h-92.911c-9.421 0-17.067-7.612-17.067-17.067zM972.8 823.467v-170.667h-921.6v170.667h153.6v-85.333c0-9.421 7.646-17.067 17.067-17.067s17.067 7.646 17.067 17.067v85.333h546.133v-85.333c0-9.421 7.646-17.067 17.067-17.067s17.067 7.646 17.067 17.067v85.333h153.6zM51.2 618.667h921.6v-648.533h-921.6v648.533zM1006.933-46.933v887.467c0 9.421-7.646 17.067-17.067 17.067h-170.667v85.333c0 9.421-7.646 17.067-17.067 17.067s-17.067-7.646-17.067-17.067v-85.333h-546.133v85.333c0 9.421-7.646 17.067-17.067 17.067s-17.067-7.646-17.067-17.067v-85.333h-170.667c-9.421 0-17.067-7.646-17.067-17.067v-887.467c0-9.421 7.646-17.067 17.067-17.067h955.733c9.421 0 17.067 7.646 17.067 17.067z" />
<glyph unicode="&#xe912;" glyph-name="icon-19" d="M670.208 263.782c0 9.421-7.612 17.067-17.067 17.067h-282.351c-9.421 0-17.067-7.646-17.067-17.067s7.646-17.067 17.067-17.067h282.351c9.455 0 17.067 7.646 17.067 17.067zM670.208 157.867c0 9.455-7.612 17.101-17.067 17.101h-282.351c-9.421 0-17.067-7.646-17.067-17.101 0-9.421 7.646-17.067 17.067-17.067h282.351c9.455 0 17.067 7.646 17.067 17.067zM670.208 52.019c0 9.421-7.612 17.067-17.067 17.067h-282.351c-9.421 0-17.067-7.646-17.067-17.067s7.646-17.067 17.067-17.067h282.351c9.455 0 17.067 7.646 17.067 17.067zM282.010 351.812h460.39v-375.125h-460.39v375.125zM247.876 368.879v-409.259c0-9.421 7.612-17.067 17.067-17.067h494.49c9.455 0 17.067 7.646 17.067 17.067v409.259c0 9.421-7.612 17.067-17.067 17.067h-494.49c-9.455 0-17.067-7.646-17.067-17.067zM776.124 772.437c0 0.444-0.034 0.887-0.068 1.331l0.068 10.274c0.034 4.506-1.775 8.875-4.949 12.083l-82.705 83.49c-6.622 6.69-17.442 6.758-24.132 0.102-6.69-6.622-6.758-17.442-0.137-24.132l65.468-66.082h-103.083l-1.946 147.115c-0.137 9.318-7.714 16.828-17.067 16.828h-342.63c-9.455 0-17.067-7.612-17.067-17.067v-228.42c0-9.421 7.612-17.067 17.067-17.067 9.421 0 17.067 7.646 17.067 17.067v211.354h308.736l1.946-147.115c0.137-9.318 7.714-16.828 17.067-16.828h132.096l-0.273-50.313c-0.034-9.421 7.578-17.101 16.964-17.169h0.102c9.387 0 17.033 7.612 17.067 16.998l0.341 66.014c0.034 0.512 0.068 1.024 0.068 1.536zM1023.966 313.173v247.057c0 18.807-7.305 36.454-20.651 49.698-13.312 13.21-30.754 18.739-49.732 20.309h-883.029c-20.446 0.205-36.557-7.1-49.903-20.309-13.312-13.244-20.651-30.891-20.651-49.698v-247.057c0-18.739 7.339-36.386 20.685-49.664 13.278-13.141 30.754-20.378 49.254-20.378h124.177c9.421 0 17.067 7.646 17.067 17.067 0 9.455-7.646 17.067-17.067 17.067h-123.836c-9.148-1.604-18.671 3.652-25.532 10.479-6.861 6.793-10.615 15.838-10.615 25.429v247.057c0 9.66 3.755 18.705 10.547 25.463 6.861 6.793 15.974 10.377 25.737 10.411h883.302c9.353 0.239 18.739-3.618 25.566-10.411 6.793-6.758 10.547-15.804 10.547-25.463v-247.057c0-19.797-16.077-35.908-35.84-35.908h-124.143c-9.421 0-17.067-7.612-17.067-17.067 0-9.421 7.646-17.067 17.067-17.067h124.143c38.605 0 69.973 31.437 69.973 70.042zM207.428 511.249c0 9.421-7.646 17.067-17.067 17.067h-76.151c-9.455 0-17.067-7.646-17.067-17.067s7.612-17.067 17.067-17.067h76.151c9.421 0 17.067 7.646 17.067 17.067z" />
<glyph unicode="&#xe913;" glyph-name="icon-20" d="M938.018 849.51c6.69 6.656 6.69 17.442 0 24.132-6.656 6.656-17.442 6.656-24.132 0l-687.957-687.036c-6.69-6.656-6.69-17.476-0.034-24.132 3.345-3.345 7.714-4.983 12.083-4.983s8.738 1.638 12.083 4.983l687.957 687.036zM989.867 839.68c0-22.835-8.909-44.339-24.951-60.518l-691.507-690.586-221.833-101.035 101.171 221.491 690.722 691.439c20.855 20.992 44.1 25.395 59.938 25.395 23.177 0 45.909-9.421 62.259-25.839 11.093-11.196 24.337-30.686 24.201-60.348zM1024 839.612c0.171 32.188-11.981 62.191-34.133 84.48-22.733 22.835-54.238 35.908-86.46 35.908-31.505 0-61.406-12.595-84.105-35.43l-692.873-693.555c-1.468-1.434-2.628-3.14-3.447-4.983l-121.446-265.865c-2.97-6.485-1.57-14.131 3.447-19.149 3.277-3.277 7.646-5.018 12.083-5.018 2.389 0 4.813 0.512 7.066 1.536l266.24 121.242c1.877 0.819 3.55 2.014 4.983 3.447l693.726 692.804c22.528 22.699 34.918 52.77 34.918 84.582z" />
<glyph unicode="&#xe914;" glyph-name="icon-21" d="M304.811 465.067h613.274l-853.879 340.719 240.606-340.719zM304.811 430.933l-240.606-340.719 853.879 340.719h-613.274zM17.067 35.942c-5.12 0-10.069 2.287-13.414 6.485-4.676 5.939-4.881 14.234-0.512 20.412l271.94 385.161-271.94 385.126c-4.369 6.178-4.164 14.473 0.512 20.412 4.71 5.939 12.698 8.090 19.729 5.291l989.525-394.854c1.604-0.58 3.106-1.399 4.437-2.423 0.887-0.717 1.707-1.502 2.458-2.355 0.034 0 0.034-0.034 0.034-0.034 2.56-2.935 4.13-6.793 4.164-11.025v-0.307c-0.034-4.198-1.604-8.055-4.164-11.025l-0.034-0.034c-0.751-0.819-1.57-1.638-2.458-2.321-1.331-1.024-2.833-1.877-4.437-2.423l-989.525-394.889c-2.048-0.785-4.198-1.195-6.315-1.195z" />
<glyph unicode="&#xe915;" glyph-name="icon-22" d="M701.952 448c0 9.421-7.612 17.067-17.067 17.067h-345.771c-9.455 0-17.067-7.646-17.067-17.067s7.612-17.067 17.067-17.067h345.771c9.455 0 17.067 7.646 17.067 17.067zM989.867 448c0-263.509-214.357-477.867-477.867-477.867s-477.867 214.357-477.867 477.867 214.357 477.867 477.867 477.867 477.867-214.357 477.867-477.867zM1024 448c0 282.317-229.683 512-512 512s-512-229.683-512-512 229.683-512 512-512 512 229.683 512 512z" />
<glyph unicode="&#xe916;" glyph-name="icon-23" d="M335.565 109.193c0 44.544 36.215 80.794 80.759 80.794 44.51 0 80.759-36.25 80.759-80.794 0-44.51-36.25-80.759-80.759-80.759-44.544 0-80.759 36.25-80.759 80.759zM0 106.189c0-9.421 7.646-17.067 17.067-17.067h286.413c9.523-53.76 56.354-94.822 112.845-94.822 56.457 0 103.322 41.062 112.879 94.822h476.604c9.421 0 17.067 7.646 17.067 17.067 0 9.455-7.646 17.067-17.067 17.067h-476.023c-7.031 56.695-54.921 100.864-113.459 100.864s-106.462-44.169-113.459-100.864h-285.798c-9.421 0-17.067-7.612-17.067-17.067zM699.836 445.884c0 44.51 36.215 80.759 80.759 80.759s80.759-36.25 80.759-80.759c0-44.544-36.215-80.759-80.759-80.759s-80.759 36.215-80.759 80.759zM0.546 444.757c0-9.421 7.646-17.101 17.067-17.101h649.933c8.772-54.682 55.91-96.666 113.050-96.666s104.277 41.984 113.084 96.666h112.708c9.455 0 17.067 7.68 17.067 17.101s-7.612 17.067-17.067 17.067h-112.503c-7.851 55.774-55.364 98.953-113.289 98.953-57.89 0-105.438-43.179-113.289-98.953h-649.694c-9.421 0-17.067-7.646-17.067-17.067zM340.958 786.842c0-44.544-36.215-80.759-80.759-80.759s-80.759 36.215-80.759 80.759 36.215 80.759 80.759 80.759c44.544 0 80.759-36.215 80.759-80.759zM1024 783.019c0 9.421-7.646 17.067-17.067 17.067h-633.173c-6.656 57.037-54.75 101.649-113.562 101.649s-106.871-44.612-113.562-101.649h-128.444c-9.421 0-17.067-7.646-17.067-17.067s7.646-17.067 17.067-17.067h129.229c9.865-53.385 56.593-94.003 112.777-94.003 56.218 0 102.912 40.619 112.777 94.003h633.958c9.421 0 17.067 7.646 17.067 17.067z" />
<glyph unicode="&#xe917;" glyph-name="icon-24" d="M701.952 448c0 9.421-7.612 17.067-17.067 17.067h-155.819v155.819c0 9.421-7.612 17.067-17.067 17.067-9.421 0-17.067-7.646-17.067-17.067v-155.819h-155.648c-9.421 0-17.067-7.646-17.067-17.067s7.646-17.067 17.067-17.067h155.648v-155.819c0-9.455 7.646-17.067 17.067-17.067 9.455 0 17.067 7.612 17.067 17.067v155.819h155.819c9.455 0 17.067 7.646 17.067 17.067zM989.867 448c0-263.509-214.357-477.867-477.867-477.867s-477.867 214.357-477.867 477.867 214.357 477.867 477.867 477.867 477.867-214.357 477.867-477.867zM1024 448c0 282.317-229.683 512-512 512s-512-229.683-512-512 229.683-512 512-512 512 229.683 512 512z" />
<glyph unicode="&#xe918;" glyph-name="icon-25" d="M238.933 430.933h110.933v-119.467h-110.933v119.467zM238.933 277.333h110.933v-119.467h-110.933v119.467zM384 430.933h110.933v-119.467h-110.933v119.467zM384 277.333h110.933v-119.467h-110.933v119.467zM529.067 430.933h110.933v-119.467h-110.933v119.467zM529.067 277.333h110.933v-119.467h-110.933v119.467zM674.133 430.933h110.933v-119.467h-110.933v119.467zM674.133 277.333h110.933v-119.467h-110.933v119.467zM204.8 430.933v-119.467h-68.267c-9.421 0-17.067-7.646-17.067-17.067s7.646-17.067 17.067-17.067h68.267v-119.467h-68.267c-9.421 0-17.067-7.646-17.067-17.067s7.646-17.067 17.067-17.067h68.267v-68.267c0-9.421 7.646-17.067 17.067-17.067s17.067 7.646 17.067 17.067v68.267h110.933v-68.267c0-9.421 7.646-17.067 17.067-17.067s17.067 7.646 17.067 17.067v68.267h110.933v-68.267c0-9.421 7.646-17.067 17.067-17.067s17.067 7.646 17.067 17.067v68.267h110.933v-68.267c0-9.421 7.646-17.067 17.067-17.067s17.067 7.646 17.067 17.067v68.267h110.933v-68.267c0-9.421 7.646-17.067 17.067-17.067s17.067 7.646 17.067 17.067v68.267h68.267c9.421 0 17.067 7.646 17.067 17.067s-7.646 17.067-17.067 17.067h-68.267v119.467h68.267c9.421 0 17.067 7.646 17.067 17.067s-7.646 17.067-17.067 17.067h-68.267v119.467h68.267c9.421 0 17.067 7.646 17.067 17.067s-7.646 17.067-17.067 17.067h-68.267v68.267c0 9.421-7.646 17.067-17.067 17.067s-17.067-7.646-17.067-17.067v-68.267h-110.933v68.267c0 9.421-7.646 17.067-17.067 17.067s-17.067-7.646-17.067-17.067v-68.267h-110.933v68.267c0 9.421-7.646 17.067-17.067 17.067s-17.067-7.646-17.067-17.067v-68.267h-110.933v68.267c0 9.421-7.646 17.067-17.067 17.067s-17.067-7.646-17.067-17.067v-68.267h-110.933v68.267c0 9.421-7.646 17.067-17.067 17.067s-17.067-7.646-17.067-17.067v-68.267h-68.267c-9.421 0-17.067-7.646-17.067-17.067s7.646-17.067 17.067-17.067h68.267zM972.8 823.467v-170.667h-921.6v170.667h153.6v-85.333c0-9.421 7.646-17.067 17.067-17.067s17.067 7.646 17.067 17.067v85.333h546.133v-85.333c0-9.421 7.646-17.067 17.067-17.067s17.067 7.646 17.067 17.067v85.333h153.6zM51.2 618.667h921.6v-648.533h-921.6v648.533zM1006.933-46.933v887.467c0 9.421-7.646 17.067-17.067 17.067h-170.667v85.333c0 9.421-7.646 17.067-17.067 17.067s-17.067-7.646-17.067-17.067v-85.333h-546.133v85.333c0 9.421-7.646 17.067-17.067 17.067s-17.067-7.646-17.067-17.067v-85.333h-170.667c-9.421 0-17.067-7.646-17.067-17.067v-887.467c0-9.421 7.646-17.067 17.067-17.067h955.733c9.421 0 17.067 7.646 17.067 17.067z" />
<glyph unicode="&#xe919;" glyph-name="icon-26" d="M529.306 908.425c-11.435 0-20.89-6.281-25.327-16.862-4.403-10.65-2.219-21.879 5.905-30.071 6.656-6.622 14.029-8.021 19.046-8.021 13.687 0 27.819 10.24 27.819 27.443 0 15.189-12.322 27.511-27.443 27.511zM528.93 819.337c-16.145 0-31.471 6.383-43.213 18.022-17.954 18.125-23.006 43.895-13.21 67.345 9.728 23.347 31.505 37.854 56.798 37.854 33.963 0 61.577-27.648 61.577-61.645 0-33.963-27.785-61.577-61.952-61.577zM822.101 795.136c-6.588 0-16.213-1.809-25.088-10.445-6.997-6.793-10.854-16.009-10.82-25.907 0.034-9.83 3.857-18.91 10.786-25.6 8.977-8.772 18.637-10.615 25.225-10.615 17.886 0 36.42 13.619 36.42 36.386 0 22.63-18.569 36.181-36.523 36.181zM822.204 688.435c-18.261 0-35.635 7.202-49.015 20.275-13.551 13.073-21.094 30.857-21.129 49.971-0.034 19.217 7.475 37.171 21.163 50.483 13.346 12.971 30.72 20.105 48.879 20.105 38.946 0 70.656-31.539 70.656-70.315 0-44.134-35.874-70.519-70.554-70.519zM235.725 848.998c-49.527 0-89.839-40.311-89.839-89.873 0-49.459 40.311-89.668 89.839-89.668 49.562 0 89.907 40.209 89.907 89.668 0 49.562-40.346 89.873-89.907 89.873zM235.725 635.324c-68.335 0-123.972 55.535-123.972 123.802 0 68.369 55.637 124.006 123.972 124.006 68.403 0 124.041-55.637 124.041-124.006 0-68.267-55.637-123.802-124.041-123.802zM944.606 510.908c-25.020 0-45.397-20.309-45.397-45.295s20.378-45.329 45.397-45.329c24.951 0 45.295 20.343 45.295 45.329s-20.343 45.295-45.295 45.295zM944.606 386.15c-43.861 0-79.531 35.669-79.531 79.462 0 43.827 35.669 79.428 79.531 79.428 43.793 0 79.428-35.601 79.428-79.428 0-43.793-35.635-79.462-79.428-79.462zM114.859 544.802c-44.066-0.341-80.009-36.011-80.691-79.462-0.444-28.092 11.981-46.694 22.494-57.412 15.428-15.667 36.932-24.644 58.948-24.644 14.711 0 36.386 4.062 56.047 23.552 28.262 28.092 27.716 63.898 17.783 88.030-9.967 24.132-34.782 49.937-74.581 49.937zM115.61 349.15c-31.095 0-61.44 12.698-83.251 34.85-21.333 21.675-32.802 50.756-32.324 81.886 0.956 61.85 52.087 112.538 113.971 113.050 48.265 0 88.883-27.238 106.974-71.031 18.057-43.861 8.397-91.853-25.259-125.303-21.811-21.606-50.244-33.451-80.111-33.451zM822.818 226.133c-29.798 0-54.067-24.269-54.067-54.101 0-29.764 24.269-53.999 54.067-53.999 29.901 0 54.204 24.235 54.204 53.999 0 29.833-24.303 54.101-54.204 54.101zM822.818 83.9c-48.64 0-88.201 39.526-88.201 88.132 0 48.674 39.561 88.235 88.201 88.235 48.708 0 88.337-39.561 88.337-88.235 0-48.606-39.629-88.132-88.337-88.132zM235.725 243.951c-39.595 0-71.817-32.29-71.817-71.919 0-39.561 32.222-71.748 71.817-71.748 39.629 0 71.885 32.188 71.885 71.748 0 39.629-32.256 71.919-71.885 71.919zM235.725 66.15c-58.436 0-105.95 47.479-105.95 105.882 0 58.47 47.514 106.052 105.95 106.052s106.018-47.582 106.018-106.052c0-58.402-47.582-105.882-106.018-105.882zM529.306 113.254c-34.645 0-62.805-28.16-62.805-62.737 0-34.714 28.16-62.942 62.805-62.942 34.577 0 62.737 28.228 62.737 62.942 0 34.577-28.16 62.737-62.737 62.737zM529.306-46.558c-53.453 0-96.939 43.52-96.939 97.075 0 53.385 43.486 96.87 96.939 96.87 53.419 0 96.87-43.486 96.87-96.87 0-53.555-43.452-97.075-96.87-97.075z" />
<glyph unicode="&#xe91a;" glyph-name="icon-27" d="M392.533 55.467c0-9.421 7.646-17.067 17.067-17.067h580.267c9.421 0 17.067 7.646 17.067 17.067s-7.646 17.067-17.067 17.067h-580.267c-9.421 0-17.067-7.646-17.067-17.067zM251.017 896.717c6.656 6.69 6.656 17.476 0 24.166-6.69 6.656-17.476 6.656-24.166 0l-124.45-124.484-56.183 56.218c-6.69 6.656-17.476 6.656-24.166 0-6.656-6.69-6.656-17.476 0-24.166l68.267-68.267c3.345-3.311 7.714-4.983 12.083-4.983s8.738 1.673 12.083 4.983l136.533 136.533zM251.017 504.183c6.656 6.69 6.656 17.476 0 24.166-6.69 6.656-17.476 6.656-24.166 0l-124.45-124.484-56.183 56.218c-6.69 6.656-17.476 6.656-24.166 0-6.656-6.69-6.656-17.476 0-24.166l68.267-68.267c3.345-3.311 7.714-4.983 12.083-4.983s8.738 1.673 12.083 4.983l136.533 136.533zM251.017 111.65c6.656 6.69 6.656 17.476 0 24.166-6.69 6.656-17.476 6.656-24.166 0l-124.45-124.484-56.183 56.218c-6.69 6.656-17.476 6.656-24.166 0-6.656-6.69-6.656-17.476 0-24.166l68.267-68.267c3.345-3.311 7.714-4.983 12.083-4.983s8.738 1.673 12.083 4.983l136.533 136.533zM1006.933 840.533c0 9.421-7.646 17.067-17.067 17.067h-580.267c-9.421 0-17.067-7.646-17.067-17.067s7.646-17.067 17.067-17.067h580.267c9.421 0 17.067 7.646 17.067 17.067zM1006.933 448c0 9.421-7.646 17.067-17.067 17.067h-580.267c-9.421 0-17.067-7.646-17.067-17.067s7.646-17.067 17.067-17.067h580.267c9.421 0 17.067 7.646 17.067 17.067z" />
<glyph unicode="&#xe91b;" glyph-name="icon-28" d="M460.8 345.566c0 28.228 22.972 51.2 51.2 51.2 28.262 0 51.2-22.972 51.2-51.2s-22.938-51.2-51.2-51.2c-28.228 0-51.2 22.972-51.2 51.2zM426.667 345.566c0-41.233 29.389-75.674 68.267-83.593v-96.973c0-9.421 7.646-17.067 17.067-17.067 9.455 0 17.067 7.646 17.067 17.067v96.973c38.912 7.919 68.267 42.359 68.267 83.593 0 47.070-38.263 85.333-85.333 85.333-47.036 0-85.333-38.263-85.333-85.333zM883.78-29.901h-743.561l-0.102 583.305c0 0 0.034 0.034 0.102 0.034h743.561v-583.339zM723.183 587.571h-422.741v126.908c0 145.203 109.568 211.388 211.388 211.388 101.786 0 211.354-66.185 211.354-211.388v-126.908zM917.914-29.901v583.339c0 19.115-14.985 34.133-34.133 34.133h-126.464v126.908c0 161.178-123.494 245.521-245.487 245.521-122.027 0-245.521-84.343-245.521-245.521v-126.908h-126.089c-18.807 0-34.133-15.326-34.133-34.133v-583.339c0-18.842 15.326-34.133 34.133-34.133h743.561c18.842 0 34.133 15.292 34.133 34.133z" />
<glyph unicode="&#xe91c;" glyph-name="icon-29" d="M361.916 216.576c-9.421 0-17.067 7.612-17.067 17.067v322.833c0 9.421 7.646 17.067 17.067 17.067 9.455 0 17.067-7.646 17.067-17.067v-322.833c0-9.455-7.612-17.067-17.067-17.067zM511.966 216.576c-9.421 0-17.067 7.612-17.067 17.067v322.833c0 9.421 7.646 17.067 17.067 17.067 9.455 0 17.067-7.646 17.067-17.067v-322.833c0-9.455-7.612-17.067-17.067-17.067zM661.982 216.576c-9.421 0-17.067 7.612-17.067 17.067v322.833c0 9.421 7.646 17.067 17.067 17.067 9.455 0 17.067-7.646 17.067-17.067v-322.833c0-9.455-7.612-17.067-17.067-17.067zM380.109 853.709h263.68c-4.983 34.782-29.73 72.158-131.823 72.158s-126.839-37.376-131.857-72.158zM203.23 754.756h617.438l3.243 64.819h-623.889l3.209-64.819zM204.971 720.623l32.188-644.881c1.536 0.444 3.14 0.683 4.813 0.683h539.989c1.673 0 3.277-0.239 4.813-0.683l32.188 644.881h-613.99zM242.415-29.867h539.068l3.618 72.465c-0.99-0.205-2.082-0.307-3.14-0.307h-539.989c-1.092 0-2.15 0.102-3.174 0.307l3.618-72.465zM797.73-64h-571.563c-9.079 0-16.589 7.134-17.033 16.213l-43.281 867.362h-46.421c-9.421 0-17.067 7.612-17.067 17.067 0 9.421 7.646 17.067 17.067 17.067h226.372c5.939 51.917 41.813 106.291 166.161 106.291 124.382 0 160.222-54.374 166.161-106.291h163.567c0.034 0 0.137 0.034 0.239 0h62.601c9.421 0 17.067-7.646 17.067-17.067 0-9.455-7.646-17.067-17.067-17.067h-46.49l-43.281-867.362c-0.444-9.079-7.919-16.213-17.033-16.213z" />
<glyph unicode="&#xe91d;" glyph-name="icon-30" d="M131.277 572.109c-9.421 0-17.033 7.612-17.067 17.033-0.102 68.642 26.556 133.154 75.025 181.623 48.367 48.401 112.742 75.025 181.248 75.025 8.772-0.341 17.442-7.509 17.408-17.101 0-9.421-7.646-17.033-17.067-17.033-0.171 0.034-0.239-0.034-0.341 0-59.426 0-115.2-23.074-157.116-65.024-42.018-42.018-65.092-97.929-65.024-157.423 0.034-9.455-7.612-17.101-17.067-17.101v0zM370.825 925.867c-185.651 0-336.691-151.040-336.691-336.691 0-185.549 151.040-336.521 336.691-336.521 185.549 0 336.521 150.972 336.521 336.521 0 185.651-150.972 336.691-336.521 336.691zM1006.933-64c-4.369 0-8.738 1.673-12.083 4.983l-374.409 374.443c-65.911-60.143-153.532-96.905-249.617-96.905-204.459 0-370.825 166.263-370.825 370.654 0 204.459 166.366 370.825 370.825 370.825 204.39 0 370.654-166.366 370.654-370.825 0-96.085-36.762-183.706-96.905-249.617l374.409-374.409c6.69-6.69 6.69-17.476 0-24.166-3.311-3.311-7.68-4.983-12.049-4.983z" />
<glyph unicode="&#xe91e;" glyph-name="icon-31" d="M0 106.667c0-9.421 7.646-17.067 17.067-17.067h989.867c9.421 0 17.067 7.646 17.067 17.067s-7.646 17.067-17.067 17.067h-989.867c-9.421 0-17.067-7.646-17.067-17.067zM1024 789.333c0 9.421-7.646 17.067-17.067 17.067h-989.867c-9.421 0-17.067-7.646-17.067-17.067s7.646-17.067 17.067-17.067h989.867c9.421 0 17.067 7.646 17.067 17.067zM1024 448c0 9.421-7.646 17.067-17.067 17.067h-989.867c-9.421 0-17.067-7.646-17.067-17.067s7.646-17.067 17.067-17.067h989.867c9.421 0 17.067 7.646 17.067 17.067z" />
<glyph unicode="&#xe91f;" glyph-name="icon-32" d="M759.467-64c-4.369 0-8.738 1.673-12.083 4.983l-494.933 494.933c-6.656 6.69-6.656 17.476 0 24.166l494.933 494.933c6.69 6.656 17.476 6.656 24.166 0 6.656-6.69 6.656-17.476 0-24.166l-482.884-482.85 482.884-482.85c6.656-6.69 6.656-17.476 0-24.166-3.345-3.311-7.714-4.983-12.083-4.983z" />
<glyph unicode="&#xe920;" glyph-name="icon-33" d="M631.467 192c-4.369 0-8.738 1.673-12.083 4.983l-238.933 238.933c-6.656 6.69-6.656 17.476 0 24.166l238.933 238.933c6.69 6.656 17.476 6.656 24.166 0 6.656-6.69 6.656-17.476 0-24.166l-226.884-226.85 226.884-226.85c6.656-6.69 6.656-17.476 0-24.166-3.345-3.311-7.714-4.983-12.083-4.983z" />
<glyph unicode="&#xe921;" glyph-name="icon-34" d="M256 328.533c0 4.369 1.673 8.738 4.983 12.083l238.933 238.933c6.69 6.656 17.476 6.656 24.166 0l238.933-238.933c6.656-6.69 6.656-17.476 0-24.166-6.69-6.656-17.476-6.656-24.166 0l-226.85 226.884-226.85-226.884c-6.69-6.656-17.476-6.656-24.166 0-3.311 3.345-4.983 7.714-4.983 12.083z" />
<glyph unicode="&#xe922;" glyph-name="icon-35" d="M264.533-64c4.369 0 8.738 1.673 12.083 4.983l494.933 494.933c6.656 6.69 6.656 17.476 0 24.166l-494.933 494.933c-6.69 6.656-17.476 6.656-24.166 0-6.656-6.69-6.656-17.476 0-24.166l482.884-482.85-482.884-482.85c-6.656-6.69-6.656-17.476 0-24.166 3.345-3.311 7.714-4.983 12.083-4.983z" />
<glyph unicode="&#xe923;" glyph-name="icon-36" d="M392.533 192c4.369 0 8.738 1.673 12.083 4.983l238.933 238.933c6.656 6.69 6.656 17.476 0 24.166l-238.933 238.933c-6.69 6.656-17.476 6.656-24.166 0-6.656-6.69-6.656-17.476 0-24.166l226.884-226.85-226.884-226.85c-6.656-6.69-6.656-17.476 0-24.166 3.345-3.311 7.714-4.983 12.083-4.983z" />
<glyph unicode="&#xe924;" glyph-name="icon-37" d="M1019.017 930.85c6.656 6.656 6.656 17.476 0 24.132s-17.476 6.656-24.132 0l-482.884-482.85-482.85 482.85c-6.656 6.656-17.476 6.656-24.132 0s-6.656-17.476 0-24.132l482.85-482.85-482.884-482.85c-6.656-6.656-6.656-17.476 0-24.132 3.379-3.345 7.714-5.018 12.083-5.018s8.738 1.673 12.083 5.018l482.85 482.816 482.884-482.85c3.311-3.311 7.68-4.983 12.049-4.983s8.738 1.673 12.083 5.018c6.656 6.656 6.656 17.476 0 24.132l-482.85 482.85 482.85 482.85z" />
<glyph unicode="&#xe925;" glyph-name="icon-38" d="M256 567.467c0-4.369 1.673-8.738 4.983-12.083l238.933-238.933c6.69-6.656 17.476-6.656 24.166 0l238.933 238.933c6.656 6.69 6.656 17.476 0 24.166-6.69 6.656-17.476 6.656-24.166 0l-226.85-226.884-226.85 226.884c-6.69 6.656-17.476 6.656-24.166 0-3.311-3.345-4.983-7.714-4.983-12.083z" />
<glyph unicode="&#xe926;" glyph-name="icon-39" d="M1024 448c0 9.421-7.646 17.067-17.067 17.067h-948.668l209.818 209.783c6.656 6.69 6.656 17.476 0 24.166-6.69 6.656-17.476 6.656-24.166 0l-238.899-238.933c-3.106-3.106-5.018-7.373-5.018-12.083s1.911-8.977 5.018-12.083l238.899-238.933c3.345-3.311 7.714-4.983 12.083-4.983s8.738 1.673 12.083 4.983c6.656 6.69 6.656 17.476 0 24.166l-209.818 209.783h948.668c9.421 0 17.067 7.646 17.067 17.067z" />
<glyph unicode="&#xe927;" glyph-name="icon-40" d="M763.017 674.85c6.656 6.656 6.656 17.476 0 24.132s-17.476 6.656-24.132 0l-226.884-226.85-226.85 226.85c-6.656 6.656-17.476 6.656-24.132 0s-6.656-17.476 0-24.132l226.85-226.85-226.85-226.884c-6.656-6.656-6.656-17.476 0-24.132 3.345-3.311 7.714-4.983 12.049-4.983 4.369 0 8.738 1.638 12.083 4.983l226.85 226.85 226.884-226.85c3.311-3.311 7.68-4.983 12.049-4.983s8.738 1.638 12.083 4.983c6.656 6.656 6.656 17.476 0 24.132l-226.85 226.884 226.85 226.85z" />
<glyph unicode="&#xe928;" glyph-name="icon-41" d="M511.966 786.5c-50.381-0.853-97.417-21.299-132.471-57.515-35.157-36.284-54.067-84.070-53.282-134.554-0.887-50.995 17.988-98.748 53.111-135.031 35.157-36.352 82.364-56.832 132.915-57.617 50.039 0.785 97.246 21.265 132.437 57.651 35.089 36.25 53.965 84.002 53.077 134.417 0.785 51.063-18.125 98.85-53.282 135.134-35.055 36.215-82.125 56.661-132.506 57.515zM512.239 367.65c-60.211 0.956-115.951 25.088-157.457 68.028-41.472 42.837-63.727 99.226-62.703 158.754-0.922 59.051 21.402 115.473 62.874 158.31 41.506 42.837 97.178 66.935 156.74 67.891h0.546c59.597-0.956 115.268-25.054 156.774-67.891 41.472-42.837 63.795-99.226 62.874-158.857 1.024-58.982-21.197-115.337-62.669-158.208-41.54-42.94-97.314-67.072-156.979-68.028zM511.761 925.867c-85.777-1.092-169.472-37.069-229.239-98.748-60.791-62.669-93.457-145.306-91.955-232.687 0-205.687 259.652-538.317 321.399-614.502 61.747 76.186 321.434 408.883 321.434 614.229 1.502 87.654-31.164 170.291-91.989 232.96-59.767 61.679-143.462 97.655-229.649 98.748zM511.966-64v0c-5.018 0-9.796 2.219-13.039 6.042-13.995 16.521-342.494 407.757-342.494 652.117-1.638 96.188 34.406 187.494 101.581 256.751 66.048 68.096 158.549 107.861 253.747 109.090 95.642-1.229 188.109-40.994 254.191-109.090 67.174-69.291 103.253-160.563 101.581-257.058 0-244.053-328.567-635.29-342.528-651.81-3.243-3.823-8.021-6.042-13.039-6.042z" />
<glyph unicode="&#xe929;" glyph-name="icon-42" d="M989.867 738.133v-58.778l-477.867-296.585-477.867 296.585v58.778h955.733zM34.133 157.867v481.314l468.855-291.021c2.765-1.707 5.905-2.56 9.011-2.56s6.246 0.853 9.011 2.56l468.855 291.021v-481.314h-955.733zM1024 140.8v614.4c0 9.421-7.646 17.067-17.067 17.067h-989.867c-9.421 0-17.067-7.646-17.067-17.067v-614.4c0-9.421 7.646-17.067 17.067-17.067h989.867c9.421 0 17.067 7.646 17.067 17.067z" />
<glyph unicode="&#xe92a;" glyph-name="icon-43" d="M853.333 550.366h-238.933c-9.421 0-17.067 7.646-17.067 17.067 0 9.455 7.646 17.067 17.067 17.067h238.933c9.421 0 17.067-7.612 17.067-17.067 0-9.421-7.646-17.067-17.067-17.067zM853.333 430.899h-238.933c-9.421 0-17.067 7.646-17.067 17.067 0 9.455 7.646 17.067 17.067 17.067h238.933c9.421 0 17.067-7.612 17.067-17.067 0-9.421-7.646-17.067-17.067-17.067zM308.361 423.697c5.495-0.478 11.127-0.375 16.862 0.307 16.111 4.028 28.979 28.706 36.557 48.606 8.226 18.227 12.902 36.625 14.234 55.535 0 42.291-1.775 61.269-18.671 77.926-11.23 8.294-26.761 13.79-43.145 14.473-13.38-0.649-27.614-6.281-38.605-15.94-14.438-13.278-17.271-28.297-17.818-58.334 14.097 1.365 21.948 5.939 31.471 11.503 12.902 7.543 27.477 16.111 55.159 16.111 9.455 0 17.067-7.646 17.067-17.067 0-9.455-7.612-17.067-17.067-17.067-18.432 0-27.034-5.052-37.922-11.435-11.025-6.451-24.405-14.268-47.206-16.179 2.185-13.21 6.178-26.487 12.015-39.287 5.769-22.528 19.183-39.697 37.069-49.152zM314.505 389.291c-4.54 0-8.875 0.307-13.141 0.853-1.809 0.205-3.584 0.717-5.257 1.536-28.706 13.722-49.459 39.253-56.934 70.076-8.67 18.33-14.302 40.926-15.633 64.068-0.034 45.227-0.034 77.21 29.218 104.175 17.135 15.019 38.844 23.654 61.406 24.644 24.781-0.956 46.899-8.841 65.434-22.767 28.638-28.058 30.549-58.061 30.549-104.311 0-0.41 0-0.785-0.034-1.161-1.57-23.211-7.236-45.705-16.828-66.935-14.916-39.117-35.908-62.635-62.020-69.018-6.076-0.751-11.571-1.161-16.759-1.161zM733.867 311.467h-119.467c-9.421 0-17.067 7.646-17.067 17.067s7.646 17.067 17.067 17.067h119.467c9.421 0 17.067-7.646 17.067-17.067s-7.646-17.067-17.067-17.067zM125.269 241.254c-9.421 0-17.067 7.646-17.067 17.067v64.375c-0.239 32.358 18.569 62.566 47.957 76.834 18.398 7.168 57.139 25.702 57.515 25.907 8.465 4.062 18.671 0.478 22.767-8.055 4.062-8.499 0.478-18.671-8.021-22.767-1.638-0.751-40.311-19.285-58.675-26.385-16.282-7.953-27.58-26.010-27.409-45.397v-64.512c0-9.421-7.612-17.067-17.067-17.067zM506.812 241.254c-9.421 0-17.067 7.646-17.067 17.067v64.375c0.307 19.729-10.889 37.717-28.57 46.046l-55.706 25.805c-8.567 3.959-12.254 14.131-8.294 22.665 3.959 8.567 14.131 12.288 22.63 8.329l55.842-25.873c29.867-14.131 48.742-44.442 48.23-77.244v-64.102c0-9.421-7.612-17.067-17.067-17.067zM34.133 123.733h955.733v648.499h-955.733v-648.499zM1006.933 89.6h-989.867c-9.421 0-17.067 7.646-17.067 17.067v682.633c0 9.455 7.646 17.067 17.067 17.067h989.867c9.421 0 17.067-7.612 17.067-17.067v-682.633c0-9.421-7.646-17.067-17.067-17.067z" />
<glyph unicode="&#xe92b;" glyph-name="icon-44" d="M678.673 378.197c-28.092-67.516-93.559-111.138-166.775-111.138-23.996 0-47.514 4.745-69.837 14.063-91.921 38.468-135.509 144.623-97.178 236.646 28.262 67.55 93.867 111.206 167.049 111.206 23.996 0 47.479-4.745 69.803-14.063 91.955-38.537 135.475-144.725 96.939-236.715zM710.178 365.056c45.807 109.295-5.905 235.52-115.234 281.327-26.59 11.127-54.477 16.725-83.012 16.725-87.006 0-164.932-51.883-198.554-132.198-45.568-109.397 6.246-235.554 115.507-281.225 26.522-11.127 54.477-16.759 83.012-16.759 87.040 0 164.864 51.883 198.281 132.13zM989.867 409.941c0-9.284-9.66-15.77-26.351-16.998l-95.3-13.312c-20.139-2.97-36.898-17.374-42.53-35.942-5.325-14.95-10.854-28.16-16.794-40.141-9.353-18.193-7.543-39.697 4.813-56.252l65.058-85.504c5.871-8.397 4.676-19.797-3.106-27.307l-51.2-51.268c-7.066-6.554-19.593-6.451-25.463-2.526l-82.91 65.57c-15.565 12.049-39.117 13.722-55.808 5.052-14.268-6.861-27.443-12.425-39.799-16.828-19.115-6.281-33.28-22.562-37.137-43.315l-13.961-103.902c-1.741-9.523-9.967-16.691-19.661-17.135h-71.612c-14.575 0-19.558 14.302-21.197 26.351l-13.312 95.505c-3.243 20.105-17.818 36.864-36.284 42.359-12.493 4.471-25.668 10.001-39.731 16.691-7.509 3.891-15.94 5.973-24.371 5.973-11.503 0-22.494-3.686-31.915-10.684l-85.538-65.058c-8.055-5.734-19.9-4.506-27.273 3.038l-51.337 51.302c-6.622 7.168-7.407 18.227-2.492 25.395l65.638 82.91c12.22 16.009 14.131 38.127 4.915 56.013-6.246 12.629-11.776 25.839-16.794 40.107-6.281 18.773-22.494 32.768-43.247 36.659l-103.868 13.961c-9.626 1.741-16.828 10.103-17.169 19.285v71.987c0 14.541 14.302 19.524 26.385 21.163l95.266 13.312c20.139 2.935 36.932 17.374 42.53 35.977 5.12 14.473 10.684 27.682 16.759 40.073 9.421 18.193 7.612 39.731-4.779 56.252l-64.649 84.958c-5.359 8.329-4.233 19.388 2.867 26.487l51.029 52.668c6.997 6.485 19.217 6.758 25.702 2.321l86.153-65.502c16.111-12.049 38.332-13.926 56.218-4.642 11.981 6.246 24.439 11.844 35.908 16.555 19.115 6.281 33.28 22.528 37.171 43.315l13.926 103.868c1.775 9.626 10.103 16.828 19.319 17.135h75.708c14.575 0 19.558-14.268 21.197-26.351l13.346-95.437c3.174-20.173 17.749-36.932 35.465-42.086 12.459-5.154 24.713-10.718 36.796-17.033 17.783-9.25 40.004-7.441 56.252 4.745l84.924 64.683c8.124 5.222 19.388 4.198 26.556-2.901l52.668-51.029c6.622-7.202 7.373-18.261 2.287-25.702l-65.468-86.153c-12.322-16.384-14.165-37.888-4.779-56.149 6.315-12.151 12.015-24.508 16.691-36.454 6.281-18.739 22.494-32.768 43.213-36.693l103.902-13.926c9.626-1.775 16.828-10.103 17.169-19.285v-76.151zM1024 409.941v76.732c-0.853 25.634-19.831 47.616-45.943 52.395l-103.799 13.926c-7.68 1.468-13.926 6.758-16.589 14.643-5.154 13.244-11.196 26.487-18.432 40.482-3.345 6.485-2.662 14.131 1.673 19.9l65.877 86.733c14.746 21.436 12.732 49.732-5.564 69.53l-53.111 51.541c-17.92 17.852-46.080 22.050-70.042 6.485l-85.948-65.331c-5.803-4.335-13.619-4.983-19.934-1.741-12.937 6.758-26.078 12.766-41.131 18.91-6.861 2.014-11.981 7.987-13.073 14.916l-13.346 95.061c-5.495 41.199-32.051 55.876-54.989 55.876l-76.254-0.034c-25.702-0.819-47.684-19.763-52.463-45.875l-13.926-103.834c-1.468-7.748-6.758-13.858-15.223-16.691-13.619-5.53-26.999-11.537-39.936-18.295-6.349-3.277-14.268-2.56-19.866 1.604l-86.699 65.911c-20.685 14.302-49.835 12.732-69.564-5.53l-51.507-53.146c-18.227-18.227-21.265-47.206-6.519-70.042l65.365-85.948c4.403-5.871 5.052-13.517 1.536-20.309-6.827-13.858-12.868-28.297-18.671-44.817-2.082-6.758-7.953-11.776-14.95-12.8l-95.13-13.312c-41.165-5.564-55.842-32.051-55.842-54.955l0.034-72.602c0.853-25.668 19.831-47.616 45.909-52.395l103.765-13.892c7.714-1.468 13.995-6.758 16.418-14.097 5.598-15.804 11.639-30.242 18.603-44.373 3.345-6.485 2.731-14.336-1.399-19.695l-66.082-83.558c-14.575-21.129-12.527-50.108 5.291-69.393l51.644-51.575c18.398-18.876 49.186-22.46 71.748-6.656l85.914 65.365c5.837 4.335 12.937 5.393 20.514 1.434 15.667-7.441 29.867-13.449 44.305-18.569 6.861-2.048 12.049-8.055 13.175-14.985l13.278-95.095c5.564-41.165 32.051-55.842 54.989-55.842h72.533c25.668 0.853 47.65 19.831 52.429 45.909l13.926 103.868c1.468 7.748 6.724 13.858 14.541 16.418 13.892 4.983 28.126 10.957 43.93 18.534 6.349 3.277 14.609 2.492 19.627-1.399l83.661-66.082c20.617-14.234 49.971-12.629 69.359 5.325l51.473 51.61c19.729 19.012 22.733 48.981 6.758 71.748l-65.365 85.948c-4.403 5.871-5.086 13.551-1.604 20.309 6.622 13.38 12.698 27.819 18.739 44.817 2.048 6.758 7.953 11.81 14.916 12.834l94.037 13.175c39.322 2.799 56.934 27.58 56.934 50.927z" />
<glyph unicode="&#xe92c;" glyph-name="icon-45" d="M989.867 448.341c0-93.116-75.913-148.787-149.299-148.787-27.375 0-67.55 7.646-103.697 43.93-43.247 43.315-55.501 105.335-32.051 161.86 23.415 56.388 75.81 91.409 137.25 91.409 81.476-0.205 147.797-66.765 147.797-148.412zM331.059 777.455c0-93.15-76.015-148.821-149.504-148.821-27.443 0-67.755 7.646-103.936 44.169-42.974 43.349-55.091 105.301-31.607 161.69 23.484 56.354 75.878 91.375 137.967 91.375 81.271-0.375 147.251-66.935 147.081-148.412zM331.059 119.194c0.137-51.302-22.903-85.163-42.257-104.585-28.194-28.297-67.277-44.476-107.179-44.476-27.273 0-67.345 7.543-103.458 43.622-43.349 43.315-55.706 105.37-32.256 161.929 23.347 56.491 75.844 91.546 136.943 91.546 81.51 0 148.002-66.389 148.207-148.036zM1024 448.341c0 100.42-81.579 182.306-182.409 182.545-58.675 0-110.626-26.624-144.384-71.339l-338.705 169.54c3.959 15.155 6.69 31.027 6.69 48.333 0.205 100.25-81.033 182.135-182.374 182.579-74.957 0-139.435-43.042-168.311-112.367-28.877-69.359-13.995-145.545 38.878-198.861 34.679-34.987 80.213-54.272 128.171-54.272 66.321 0 133.973 37.205 165.376 102.229l332.356-166.366c-1.98-3.994-4.233-7.748-5.973-11.947-21.197-51.063-18.466-105.745 5.427-152.337l-333.073-166.775c-29.867 60.177-91.341 102.059-162.816 102.059-75.196 0-139.742-43.145-168.482-112.606-28.809-69.564-13.619-145.852 39.663-199.134 34.645-34.611 79.94-53.623 127.59-53.623 48.913 0 96.802 19.866 131.379 54.511 33.758 33.86 52.292 79.599 52.19 128.751-0.068 16.691-3.072 32.563-7.339 47.957l339.456 169.984c4.745-6.144 9.728-12.186 15.36-17.818 34.679-34.782 80.077-53.965 127.898-53.965 90.146 0 183.433 68.437 183.433 182.921z" />
<glyph unicode="&#xe92d;" glyph-name="icon-46" d="M512 278.63c-2.355 0-4.574 0.478-6.622 1.331h-0.034c-1.809 0.785-3.482 1.877-4.983 3.277h-0.034v0.034c-0.171 0.137-0.307 0.273-0.444 0.41l-152.269 152.269c-6.656 6.656-6.656 17.476 0 24.132s17.476 6.656 24.132 0l123.187-123.187v491.793c0 9.421 7.646 17.067 17.067 17.067s17.067-7.646 17.067-17.067v-491.793l123.153 123.187c6.69 6.656 17.476 6.656 24.132 0 6.69-6.656 6.69-17.476 0-24.132l-152.235-152.269c-0.137-0.137-0.273-0.273-0.41-0.375 0-0.034 0-0.034-0.034-0.034v-0.034c-1.536-1.399-3.209-2.492-5.018-3.277h-0.034c-2.048-0.853-4.267-1.331-6.622-1.331zM1006.933 50.244h-989.867c-9.421 0-17.067 7.646-17.067 17.067v266.513c0 9.421 7.646 17.067 17.067 17.067h176.674c9.421 0 17.067-7.646 17.067-17.067 0-9.455-7.646-17.067-17.067-17.067h-159.607v-232.38h955.733v232.38h-159.573c-9.421 0-17.067 7.612-17.067 17.067 0 9.421 7.646 17.067 17.067 17.067h176.64c9.421 0 17.067-7.646 17.067-17.067v-266.513c0-9.455-7.646-17.067-17.067-17.067z" />
<glyph unicode="&#xe92e;" glyph-name="icon-47" d="M512 196.745c7.953 0 15.565-2.423 21.982-7.066l271.019-195.823c0.99 0 2.116 0.614 2.799 1.536l-102.093 320.307c-5.018 15.77 0.751 32.563 14.336 41.847l267.981 195.721c1.024 0.683 2.355 1.57 1.673 3.789l-2.56 19.046-0.273-17.067-332.937-0.034c-16.521 0-30.891 10.411-35.738 25.873l-102.912 315.392c-0.034 0.068-0.683 1.877-3.277 1.877s-3.243-1.809-3.482-2.423l-102.741-315.017c-4.881-15.326-19.251-25.702-35.772-25.702h-332.151l-3.55-1.946c-0.683-2.219 0.649-3.106 1.229-3.516l268.834-196.301c13.175-9.011 18.944-25.805 13.961-41.472l-102.605-317.235 3.311-4.198 270.985 195.345c6.417 4.642 14.029 7.066 21.982 7.066zM805.001-40.277c-7.817 0-15.428 2.492-21.982 7.236l-269.073 195.072-13.926 13.824 10.001-13.824-269.039-194.628c-6.554-4.745-14.131-7.202-21.948-7.202-11.844 0-23.177 5.734-30.31 15.36-7.066 9.557-9.079 21.675-5.53 33.212l102.639 317.406c0.375 1.195-0.102 2.492-1.195 3.243l-268.834 196.267c-13.107 9.011-18.944 25.771-14.097 41.438 4.813 15.565 18.978 26.044 35.157 26.044l333.141-0.034c1.57 0 2.901 0.853 3.277 2.014l103.014 315.699c5.666 15.667 19.593 25.429 35.703 25.429s30.037-9.762 35.533-24.883l103.185-316.109c0.375-1.297 1.707-2.15 3.209-2.15h332.22c15.906-0.887 31.334-10.411 36.147-26.010 4.881-15.667-0.99-32.461-14.575-41.745l-267.947-195.686c-1.502-1.024-1.98-2.321-1.57-3.618l102.537-317.474c3.618-11.878 1.57-23.996-5.495-33.553-7.134-9.591-18.432-15.326-30.242-15.326z" />
<glyph unicode="&#xe92f;" glyph-name="icon-48" d="M544.597 755.814h251.699v44.203c0 69.393-56.457 125.85-125.85 125.85h-0.717c-33.417-0.068-64.819-13.107-88.439-36.762-23.757-23.757-36.796-55.364-36.693-89.020v-44.271zM389.154 925.867c-88.883 0-161.28-72.158-161.451-161.007v-753.527l131.891 205.756c3.174 4.983 8.329 8.602 14.609 7.851 5.905-0.034 11.332-3.174 14.37-8.26l121.89-202.206v785.545c-0.137 42.769 16.452 83.012 46.66 113.22 4.54 4.54 9.284 8.738 14.165 12.629h-182.135zM210.637-63.966c-1.604 0-3.209 0.239-4.813 0.717-7.27 2.116-12.254 8.772-12.254 16.35v811.793c0.205 107.657 87.927 195.106 195.55 195.106h281.361c88.235-0.034 159.949-71.782 159.949-159.983v-61.269c0-9.421-7.612-17.067-17.067-17.067h-268.766v-768.58c0-7.68-5.086-14.404-12.493-16.418-7.373-2.185-15.189 1.024-19.183 7.612l-139.401 231.253-148.514-231.663c-3.209-4.983-8.67-7.851-14.37-7.851z" />
<glyph unicode="&#xe930;" glyph-name="icon-49" d="M460.8 345.668c0 28.228 22.972 51.2 51.2 51.2s51.2-22.972 51.2-51.2-22.972-51.2-51.2-51.2c-28.228 0-51.2 22.972-51.2 51.2zM426.667 345.668c0-41.233 29.355-75.674 68.267-83.593v-96.973c0-9.421 7.646-17.067 17.067-17.067s17.067 7.646 17.067 17.067v96.973c38.912 7.919 68.267 42.359 68.267 83.593 0 47.070-38.298 85.333-85.333 85.333s-85.333-38.263-85.333-85.333zM883.917-29.798h-743.799l-0.137 583.509c0 0 0.034 0 0.137 0h743.765l0.034-583.509zM918.016-29.798v583.509c0 18.807-15.292 34.133-34.099 34.133h-126.532v126.976c-0.375 138.923-99.635 220.774-197.871 240.265-98.099 19.49-221.15-18.227-274.5-146.466-3.618-8.704 0.512-18.671 9.216-22.289 8.636-3.686 18.671 0.478 22.289 9.182 49.050 117.965 157.901 141.722 236.373 126.089 78.404-15.565 170.018-79.053 170.359-206.814v-126.942h-583.134c-18.842 0-34.133-15.326-34.133-34.133v-583.509c0-18.842 15.292-34.133 34.133-34.133h743.799c18.807 0 34.099 15.292 34.099 34.133z" />
<glyph unicode="&#xe931;" glyph-name="icon-50" d="M488.755 443.938c15.121-1.638 30.652-1.57 46.217 0.341 37.751 9.284 71.714 50.483 98.953 122.129 19.149 42.155 30.174 85.879 33.314 131.004-0.034 99.157-4.642 147.183-48.060 190.054-30.686 22.938-69.495 36.727-110.49 38.4-36.454-1.604-72.841-16.111-101.103-40.789-43.588-40.277-47.002-87.552-47.275-168.448 0.273 0 0.58 0 0.853 0 50.961 0 75.537 14.37 101.547 29.559 27.785 16.282 56.525 33.075 112.708 33.075 9.455 0 17.067-7.646 17.067-17.067s-7.612-17.067-17.067-17.067c-46.933 0-69.427-13.141-95.505-28.399-27.409-16.043-58.505-34.202-118.647-34.236 3.789-39.765 14.336-79.258 31.437-116.804 13.38-53.965 48.811-98.202 96.051-121.754zM509.406 408.678c-9.455 0-18.603 0.58-27.614 1.673-1.843 0.239-3.618 0.785-5.291 1.57-57.617 27.614-100.966 80.964-115.883 142.711-19.627 42.291-31.539 90.283-34.441 139.537-0.034 98.031-0.034 162.133 58.607 216.269 34.406 30.106 78.268 47.582 123.87 49.562 49.391-1.98 94.822-18.159 132.779-46.763 56.013-55.091 59.938-118.443 59.938-216.405 0-0.375 0-0.751-0.034-1.161-3.345-49.391-15.428-97.314-35.908-142.37-31.061-81.783-73.079-130.116-124.382-142.575-11.025-1.399-21.504-2.048-31.642-2.048zM85.333-64c-9.421 0-17.067 7.646-17.067 17.067v285.628c-0.512 64.41 36.898 124.416 95.334 152.781 41.233 15.94 159.539 56.9 164.557 58.675 8.875 3.004 18.603-1.638 21.709-10.581 3.072-8.875-1.638-18.637-10.547-21.709-1.229-0.41-122.778-42.496-162.133-57.685-45.329-22.050-75.196-69.905-74.786-121.344v-285.764c0-9.421-7.646-17.067-17.067-17.067zM938.633-64c-9.421 0-17.067 7.646-17.067 17.067v285.628c0.819 52.053-28.979 99.806-75.913 121.958l-157.559 57.31c-8.875 3.209-13.414 13.005-10.206 21.879 3.243 8.841 12.971 13.346 21.879 10.206l159.027-57.924c60.484-28.467 97.929-88.542 96.905-153.702v-285.355c0-9.421-7.646-17.067-17.067-17.067z" />
<glyph unicode="&#xe932;" glyph-name="icon-51" d="M904.397 480.7c0.41-2.492-0.239-5.154-1.434-6.622l-62.908-72.738c-5.939-6.929-9.387-16.009-9.694-25.532l-1.638-51.268c-0.034-2.116-0.853-3.618-1.707-4.403l-45.534-42.325-98.031-14.165c-8.841-1.092-16.964-5.598-22.801-12.8l-20.207-24.678-221.457 57.788-21.060 35.703c-6.281 11.844-18.091 19.217-30.788 19.217-3.925 0-7.851-0.751-11.264-2.014l-96.29-33.655-56.695 14.575c-3.413 0.887-6.963 0.649-10.206-0.546l-23.279-8.704-47.514 31.403c-1.536 1.058-2.799 4.096-2.423 6.724l10.786 55.842c0.58 2.935 2.014 3.584 3.959 2.355l14.097-10.308c12.083-9.284 29.525-9.011 40.892-0.273l21.777 15.667 47.479-18.33c7.509-2.662 15.94-2.628 23.108-0.034l127.659 44.476 50.927-33.929c5.632-3.755 13.005-3.755 18.705-0.137 5.7 3.686 8.704 10.411 7.612 17.101l-15.701 96.529c-0.41 2.799 0.614 5.12 1.673 6.11l100.659 95.573 69.018-11.196c0.956-0.137 4.779-0.444 5.734-0.444 11.093 0 21.436 5.291 28.638 14.95l35.84 49.015 167.731-54.921c0.956-0.307 2.15-1.673 2.458-3.311l21.879-130.697zM929.007 452.028c7.714 9.318 11.059 21.709 9.079 34.167l-21.982 131.447c-2.867 13.961-12.561 25.259-25.361 29.457l-166.946 54.647c-14.643 5.7-32.358-0.307-41.199-13.619l-34.918-48.333-69.359 11.23c-0.819 0.137-4.028 0.341-4.847 0.341-8.26 0-16.35-3.174-22.903-9.182l-101.308-95.403c-9.557-8.704-14.268-22.528-12.22-36.352l9.455-58.197-18.807 12.527c-8.636 5.359-17.715 7.27-29.696 3.721l-127.59-44.885-46.694 18.022c-10.786 4.437-23.347 2.935-32.939-4.028l-21.982-15.77-13.278 9.66c-6.519 5.7-14.711 8.841-23.040 8.841-17.237 0-31.881-12.698-35.703-31.13l-10.923-56.695c-2.458-16.077 4.096-32.017 16.964-40.858l55.023-36.386c4.574-3.038 10.308-3.652 15.36-1.741l26.385 9.865 50.654-13.005c6.349-2.014 12.459-2.219 20.070 0.205l97.826 32.427 21.504-36.523c5.222-8.67 13.141-14.78 22.323-17.135l219.921-56.218c2.799-0.717 5.7-1.126 8.602-1.126 10.24 0 19.968 4.642 26.897 12.937l20.548 24.849 97.792 14.131c7.407 0.785 14.165 4.028 19.319 9.079l45.056 42.052c7.919 7.168 12.561 17.647 12.766 28.57l1.638 51.132c0.034 1.775 0.58 3.311 1.399 4.301l63.113 72.977zM989.867 89.6c0-117.453-114.62-119.433-119.501-119.467h-716.766c-117.453 0-119.433 114.62-119.467 119.467v716.8c0 117.453 114.62 119.433 119.467 119.467h716.8c117.453 0 119.433-114.62 119.467-119.467v-716.8zM1024 89.6v716.8c0 53.146-32.085 153.6-153.6 153.6h-716.8c-53.146 0-153.6-32.085-153.6-153.6v-716.8c0-53.146 32.085-153.6 153.6-153.6h716.8c53.146 0 153.6 32.085 153.6 153.6z" />
<glyph unicode="&#xe933;" glyph-name="icon-52" d="M682.667 448c0-94.106-76.561-170.667-170.667-170.667s-170.667 76.561-170.667 170.667v307.2c0 94.106 76.561 170.667 170.667 170.667s170.667-76.561 170.667-170.667v-307.2zM716.8 448v307.2c0 112.947-91.887 204.8-204.8 204.8-112.947 0-204.8-91.853-204.8-204.8v-307.2c0-112.947 91.853-204.8 204.8-204.8 112.913 0 204.8 91.853 204.8 204.8zM870.4 448c0 9.421-7.646 17.067-17.067 17.067s-17.067-7.646-17.067-17.067c0-178.79-145.476-324.267-324.267-324.267s-324.267 145.476-324.267 324.267c0 9.421-7.646 17.067-17.067 17.067s-17.067-7.646-17.067-17.067c0-191.863 151.654-348.535 341.333-357.547v-120.32h-324.267c-9.421 0-17.067-7.646-17.067-17.067s7.646-17.067 17.067-17.067h682.667c9.421 0 17.067 7.646 17.067 17.067s-7.646 17.067-17.067 17.067h-324.267v120.32c189.679 9.011 341.333 165.683 341.333 357.547z" />
<glyph unicode="&#xe934;" glyph-name="icon-53" d="M1024 448c0 9.421-7.646 17.067-17.067 17.067h-477.867v477.867c0 9.421-7.646 17.067-17.067 17.067s-17.067-7.646-17.067-17.067v-477.867h-477.867c-9.421 0-17.067-7.646-17.067-17.067s7.646-17.067 17.067-17.067h477.867v-477.867c0-9.421 7.646-17.067 17.067-17.067s17.067 7.646 17.067 17.067v477.867h477.867c9.421 0 17.067 7.646 17.067 17.067z" />
<glyph unicode="&#xe935;" glyph-name="icon-54" d="M1006.933 430.933h-989.867c-9.421 0-17.067 7.646-17.067 17.067s7.646 17.067 17.067 17.067h989.867c9.421 0 17.067-7.646 17.067-17.067s-7.646-17.067-17.067-17.067z" />
<glyph unicode="&#xe936;" glyph-name="icon-55" d="M682.667 448c0-9.421 7.646-17.067 17.067-17.067h134.861c-8.806-164.898-140.561-296.687-305.527-305.459v134.793c0 9.421-7.646 17.067-17.067 17.067s-17.067-7.646-17.067-17.067v-134.793c-164.966 8.772-296.721 140.561-305.527 305.459h134.861c9.421 0 17.067 7.646 17.067 17.067s-7.646 17.067-17.067 17.067h-134.793c8.772 164.966 140.561 296.721 305.459 305.527v-134.861c0-9.421 7.646-17.067 17.067-17.067s17.067 7.646 17.067 17.067v134.861c164.898-8.806 296.721-140.561 305.493-305.527h-134.827c-9.421 0-17.067-7.646-17.067-17.067zM1024 448c0 9.421-7.646 17.067-17.067 17.067h-137.387c-8.738 183.979-156.501 331.742-340.48 340.48v137.387c0 9.421-7.646 17.067-17.067 17.067s-17.067-7.646-17.067-17.067v-137.387c-183.945-8.738-331.742-156.501-340.48-340.48h-137.387c-9.421 0-17.067-7.646-17.067-17.067s7.646-17.067 17.067-17.067h137.387c8.738-183.979 156.501-331.742 340.48-340.48v-137.387c0-9.421 7.646-17.067 17.067-17.067s17.067 7.646 17.067 17.067v137.387c183.979 8.738 331.742 156.501 340.48 340.48h137.387c9.421 0 17.067 7.646 17.067 17.067z" />
<glyph unicode="&#xe937;" glyph-name="icon-56" d="M384 55.467c0-9.421 7.646-17.067 17.067-17.067h580.267c9.421 0 17.067 7.646 17.067 17.067s-7.646 17.067-17.067 17.067h-580.267c-9.421 0-17.067-7.646-17.067-17.067zM230.4 840.533c0-47.036-38.298-85.333-85.333-85.333s-85.333 38.298-85.333 85.333 38.298 85.333 85.333 85.333 85.333-38.298 85.333-85.333zM264.533 840.533c0 65.877-53.589 119.467-119.467 119.467s-119.467-53.589-119.467-119.467 53.589-119.467 119.467-119.467 119.467 53.589 119.467 119.467zM230.4 448c0-47.070-38.298-85.333-85.333-85.333s-85.333 38.263-85.333 85.333c0 47.036 38.298 85.333 85.333 85.333s85.333-38.298 85.333-85.333zM264.533 448c0 65.877-53.589 119.467-119.467 119.467s-119.467-53.589-119.467-119.467 53.589-119.467 119.467-119.467 119.467 53.589 119.467 119.467zM230.4 55.467c0-47.070-38.298-85.333-85.333-85.333s-85.333 38.263-85.333 85.333 38.298 85.333 85.333 85.333 85.333-38.263 85.333-85.333zM264.533 55.467c0 65.877-53.589 119.467-119.467 119.467s-119.467-53.589-119.467-119.467 53.589-119.467 119.467-119.467 119.467 53.589 119.467 119.467zM998.4 840.533c0 9.421-7.646 17.067-17.067 17.067h-580.267c-9.421 0-17.067-7.646-17.067-17.067s7.646-17.067 17.067-17.067h580.267c9.421 0 17.067 7.646 17.067 17.067zM998.4 448c0 9.421-7.646 17.067-17.067 17.067h-580.267c-9.421 0-17.067-7.646-17.067-17.067s7.646-17.067 17.067-17.067h580.267c9.421 0 17.067 7.646 17.067 17.067z" />
<glyph unicode="&#xe938;" glyph-name="icon-57" d="M1.297 181.453c-3.584-8.738 0.546-18.671 9.25-22.289l494.933-204.8c2.082-0.853 4.301-1.297 6.519-1.297s4.437 0.444 6.519 1.297l494.933 204.8c8.704 3.618 12.834 13.551 9.25 22.289-3.618 8.67-13.551 12.902-22.289 9.25l-488.414-202.103-488.414 202.103c-8.738 3.618-18.671-0.546-22.289-9.25zM1.297 363.486c-3.584-8.704 0.546-18.705 9.25-22.289l494.933-204.8c2.082-0.853 4.301-1.297 6.519-1.297s4.437 0.444 6.519 1.297l494.933 204.8c8.704 3.584 12.834 13.585 9.25 22.289-3.618 8.67-13.551 12.902-22.289 9.25l-488.414-202.103-488.414 202.103c-8.738 3.652-18.671-0.546-22.289-9.25zM23.586 554.769c-8.67 3.55-18.671-0.512-22.289-9.25-3.584-8.704 0.546-18.671 9.25-22.289l494.933-204.766c2.082-0.853 4.301-1.297 6.519-1.297s4.437 0.444 6.519 1.297l494.933 204.766c8.704 3.618 12.834 13.585 9.25 22.289-3.618 8.704-13.551 12.834-22.289 9.25l-488.414-202.069-488.414 202.069zM962.287 721.067l-450.287-186.334-450.287 186.334 450.287 186.334 450.287-186.334zM1024 721.067c0 6.895-4.164 13.141-10.547 15.77l-494.933 204.8c-4.198 1.741-8.841 1.741-13.039 0l-494.933-204.8c-6.383-2.628-10.547-8.875-10.547-15.77s4.164-13.141 10.547-15.77l494.933-204.8c2.082-0.853 4.301-1.297 6.519-1.297s4.437 0.444 6.519 1.297l494.933 204.8c6.383 2.628 10.547 8.875 10.547 15.77z" />
<glyph unicode="&#xe939;" glyph-name="icon-58" d="M560.572 589.278c0 9.421-7.646 17.067-17.067 17.067h-155.819v155.819c0 9.421-7.646 17.067-17.067 17.067s-17.067-7.646-17.067-17.067v-155.819h-155.648c-9.421 0-17.067-7.646-17.067-17.067s7.646-17.067 17.067-17.067h155.648v-155.819c0-9.421 7.646-17.033 17.067-17.033s17.067 7.612 17.067 17.033v155.819h155.819c9.421 0 17.067 7.646 17.067 17.067zM707.311 589.175c0-185.515-150.972-336.452-336.486-336.452-185.651 0-336.691 150.938-336.691 336.452 0 185.651 151.040 336.691 336.691 336.691 185.515 0 336.486-151.040 336.486-336.691zM1018.982-34.85l-374.75 374.716c60.177 65.911 97.212 153.259 97.212 249.31 0 204.493-166.263 370.825-370.62 370.825-204.459 0-370.825-166.332-370.825-370.825 0-204.322 166.366-370.586 370.825-370.586 96.017 0 183.364 37.001 249.276 97.143l374.75-374.716c3.345-3.345 7.714-5.018 12.083-5.018 4.335 0 8.704 1.673 12.049 5.018 6.656 6.656 6.656 17.476 0 24.132z" />
<glyph unicode="&#xe93a;" glyph-name="icon-59" d="M5.018 204.083c-3.106-3.106-5.018-7.373-5.018-12.083s1.911-8.977 5.018-12.083l238.899-238.933c3.345-3.311 7.714-4.983 12.083-4.983s8.738 1.673 12.083 4.983c6.656 6.69 6.656 17.476 0 24.166l-209.818 209.783h948.668c9.421 0 17.067 7.646 17.067 17.067s-7.646 17.067-17.067 17.067h-948.668l209.818 209.783c6.656 6.69 6.656 17.476 0 24.166-6.69 6.656-17.476 6.656-24.166 0l-238.899-238.933zM1024 704c0 4.71-1.911 8.977-5.018 12.083l-238.899 238.933c-6.69 6.656-17.476 6.656-24.166 0-6.656-6.69-6.656-17.476 0-24.166l209.818-209.783h-948.668c-9.421 0-17.067-7.646-17.067-17.067s7.646-17.067 17.067-17.067h948.668l-209.818-209.783c-6.656-6.69-6.656-17.476 0-24.166 3.345-3.311 7.714-4.983 12.083-4.983s8.738 1.673 12.083 4.983l238.899 238.933c3.106 3.072 5.018 7.339 5.018 12.083z" />
<glyph unicode="&#xe93b;" glyph-name="icon-60" d="M401.715 448.137c4.437 0 8.806-1.741 12.049-5.018l451.55-451.584c27.511-27.58 75.503-27.648 103.151 0 13.756 13.756 21.367 32.085 21.367 51.575s-7.612 37.786-21.367 51.575l-451.516 451.618c-5.086 5.12-6.451 12.902-3.345 19.422 45.978 96.734 26.419 212.139-48.64 287.164-47.002 47.036-109.739 72.977-176.64 72.977-19.012 0-37.854-2.116-56.354-6.281l176.333-176.367c4.335-4.301 6.007-10.615 4.437-16.486l-35.362-131.959c-1.57-5.871-6.178-10.479-12.049-12.049l-131.925-35.362c-5.973-1.604-12.186 0.137-16.486 4.437l-176.367 176.367c-19.115-84.378 5.257-171.622 66.731-233.062 47.309-47.343 110.285-73.387 177.391-73.387 37.717 0 75.674 8.533 109.739 24.747 2.321 1.126 4.813 1.673 7.305 1.673zM916.89-64c-28.604 0-55.501 11.127-75.708 31.369l-443.221 443.29c-35.669-15.155-74.615-23.108-113.323-23.108-76.22 0-147.797 29.628-201.523 83.388-77.346 77.346-103.083 190.532-67.174 295.39 1.911 5.564 6.554 9.762 12.288 11.093 5.7 1.331 11.742-0.375 15.94-4.54l189.918-189.986 112.879 30.242 30.242 112.913-189.952 189.952c-4.13 4.164-5.871 10.206-4.54 15.94s5.53 10.377 11.093 12.288c30.549 10.479 62.327 15.77 94.515 15.77 76.015 0 147.319-29.457 200.806-82.944 82.364-82.364 105.916-207.531 60.314-314.914l443.153-443.324c20.207-20.207 31.369-47.104 31.403-75.708 0-28.604-11.162-55.535-31.403-75.742-20.241-20.241-47.138-31.369-75.708-31.369z" />
<glyph unicode="&#xe93c;" glyph-name="icon-61" d="M982.767 714.479l-737.28-737.28-204.288 204.288 39.322 39.322 89.498-89.498c3.311-3.345 7.68-4.983 12.049-4.983s8.738 1.638 12.083 4.983c6.656 6.656 6.656 17.476 0 24.132l-89.498 89.498 39.322 39.322 140.254-140.254c3.311-3.311 7.68-4.983 12.049-4.983s8.738 1.673 12.083 4.983c6.656 6.69 6.656 17.476 0 24.132l-140.22 140.254 39.322 39.322 89.498-89.463c3.311-3.345 7.68-5.018 12.049-5.018s8.738 1.673 12.083 5.018c6.656 6.656 6.656 17.476 0 24.132l-89.498 89.463 39.322 39.322 140.22-140.254c3.345-3.345 7.714-4.983 12.083-4.983s8.738 1.638 12.083 4.983c6.656 6.656 6.656 17.476 0 24.132l-140.254 140.254 39.287 39.322 89.498-89.498c3.345-3.345 7.714-5.018 12.083-5.018s8.738 1.673 12.049 5.018c6.69 6.656 6.69 17.442 0 24.132l-89.463 89.498 39.322 39.322 140.22-140.254c3.345-3.345 7.714-5.018 12.083-5.018s8.738 1.673 12.049 5.018c6.69 6.656 6.69 17.476 0 24.132l-140.22 140.254 39.287 39.322 89.498-89.498c3.345-3.311 7.714-4.983 12.083-4.983s8.738 1.673 12.049 4.983c6.69 6.69 6.69 17.476 0 24.132l-89.498 89.498 39.322 39.322 140.254-140.254c3.345-3.345 7.714-5.018 12.049-5.018 4.369 0 8.738 1.673 12.083 5.018 6.656 6.656 6.656 17.442 0 24.132l-140.254 140.254 39.322 39.322 89.498-89.498c3.345-3.345 7.714-4.983 12.083-4.983 4.335 0 8.704 1.638 12.049 4.983 6.69 6.656 6.69 17.476 0 24.132l-89.498 89.498 39.322 39.322 140.254-140.254c3.311-3.345 7.68-5.018 12.049-5.018s8.738 1.673 12.083 5.018c6.656 6.656 6.656 17.442 0 24.132l-140.254 140.254 39.322 39.287 89.498-89.463c3.311-3.345 7.68-5.018 12.049-5.018s8.738 1.673 12.083 5.018c6.656 6.656 6.656 17.476 0 24.132l-89.498 89.463 39.356 39.356 204.22-204.322zM1019.017 726.562l-228.386 228.454c-3.209 3.209-7.578 4.983-12.083 4.983-4.54 0-8.875-1.775-12.049-4.983l-63.42-63.386c-0.034-0.068-0.068-0.034-0.137-0.068-0.034-0.034 0-0.102-0.034-0.137l-63.283-63.283c-0.034-0.034-0.068 0-0.102-0.034s0-0.068-0.034-0.102l-63.283-63.283c-0.068-0.034-0.102-0.034-0.137-0.068-0.068-0.034-0.034-0.102-0.068-0.137l-63.249-63.249c-0.034-0.034-0.102-0.034-0.137-0.068-0.068-0.034-0.034-0.102-0.068-0.137l-63.283-63.283c-0.034-0.034-0.068 0-0.102-0.034 0-0.034 0-0.068-0.034-0.068l-63.317-63.317c-0.034-0.034-0.068-0.034-0.102-0.068 0 0 0-0.068-0.034-0.068l-63.317-63.351c-0.034-0.034-0.068 0-0.102-0.034 0-0.034 0-0.068 0-0.068l-63.317-63.317c-0.034-0.034-0.102 0-0.137-0.034s0-0.102-0.034-0.137l-63.317-63.283c0-0.034-0.068-0.034-0.068-0.034-0.034-0.034-0.034-0.068-0.034-0.102l-63.386-63.351c0-0.034-0.034 0-0.034-0.034-0.034 0 0-0.034-0.034-0.068l-63.317-63.317c-0.034-0.034-0.102 0-0.137-0.034 0-0.034 0-0.068-0.034-0.102l-63.386-63.42c-3.243-3.174-5.018-7.509-5.018-12.049s1.775-8.875 4.983-12.083l228.42-228.386c3.379-3.345 7.748-5.018 12.117-5.018s8.738 1.673 12.049 5.018l761.446 761.412c6.656 6.656 6.656 17.476 0 24.132z" />
<glyph unicode="&#xe93d;" glyph-name="icon-62" d="M371.78 380.928l123.187 123.153v-491.759c0-9.455 7.612-17.067 17.067-17.067 9.421 0 17.067 7.612 17.067 17.067v491.759l123.153-123.153c6.656-6.656 17.476-6.656 24.132 0s6.656 17.476 0 24.132l-152.235 152.269c-0.137 0.137-0.273 0.273-0.41 0.375-0.034 0.034-0.034 0.034-0.034 0.034l-0.034 0.034c-1.502 1.399-3.209 2.492-5.018 3.243h-0.034c-2.014 0.887-4.267 1.331-6.588 1.331-2.355 0-4.608-0.444-6.622-1.331h-0.034c-1.809-0.751-3.516-1.843-5.018-3.243l-0.034-0.034c-0.137-0.137-0.273-0.273-0.41-0.41l-152.269-152.269c-6.69-6.656-6.69-17.476 0-24.132 6.656-6.656 17.442-6.656 24.132 0zM913.442 655.428c0.375 2.731 0.614 5.495 0.614 8.329 0 130.697-106.359 237.022-237.090 237.022-89.634 0-170.121-49.835-210.534-128.683-19.831 12.288-41.745 18.705-64.41 18.705-45.056 0-86.46-24.132-109.124-62.566-19.866 5.154-37.888 7.578-55.876 7.578-130.662 0-237.022-106.325-237.022-237.056 0-130.697 106.359-237.022 237.022-237.022h172.578c9.455 0 17.067 7.612 17.067 17.067 0 9.421-7.612 17.067-17.067 17.067h-172.578c-111.855 0-202.889 91.034-202.889 202.889 0 111.889 91.034 202.923 202.889 202.923 18.534 0 37.478-3.174 59.597-10.001 8.226-2.458 17.135 1.502 20.651 9.421 14.916 33.758 48.196 55.569 84.753 55.569 27.068 0 47.582-12.868 60.041-23.62 4.198-3.618 9.899-5.086 15.155-3.686 5.393 1.297 9.762 5.086 11.81 10.172 31.232 77.244 104.994 127.113 187.938 127.113 111.923 0 202.957-91.034 202.957-202.889 0-2.833-0.512-5.495-0.956-8.192-0.444-2.799-0.887-5.564-1.126-8.397-0.614-7.202 3.311-13.961 9.83-16.998 62.089-28.706 102.195-91.068 102.195-158.891 0-96.734-78.677-175.411-175.377-175.411h-200.090c-9.421 0-17.067-7.646-17.067-17.067 0-9.455 7.646-17.067 17.067-17.067h200.090c115.507 0 209.51 94.003 209.51 209.545 0 76.8-42.974 147.763-110.558 184.149z" />
<glyph unicode="&#xe93e;" glyph-name="icon-63" d="M347.648 176.674c-6.69-6.656-6.69-17.476 0-24.132l152.269-152.269c0.137-0.137 0.273-0.273 0.41-0.41l0.034-0.034c1.502-1.399 3.209-2.492 5.018-3.243h0.034c2.014-0.887 4.267-1.331 6.622-1.331 2.321 0 4.574 0.444 6.588 1.331h0.034c1.809 0.751 3.516 1.843 5.018 3.243l0.034 0.034c0 0 0 0 0.034 0.034 0.137 0.102 0.273 0.239 0.41 0.375l152.235 152.269c6.656 6.656 6.656 17.476 0 24.132s-17.476 6.656-24.132 0l-123.153-123.153v491.759c0 9.455-7.646 17.067-17.067 17.067-9.455 0-17.067-7.612-17.067-17.067v-491.759l-123.187 123.153c-6.69 6.656-17.476 6.656-24.132 0zM913.442 655.428c0.375 2.731 0.614 5.495 0.614 8.329 0 130.697-106.359 237.022-237.090 237.022-89.668 0-170.121-49.835-210.534-128.683-19.831 12.288-41.745 18.705-64.41 18.705-45.056 0-86.46-24.132-109.124-62.566-19.866 5.154-37.888 7.578-55.876 7.578-130.662 0-237.022-106.325-237.022-237.056 0-130.697 106.359-237.022 237.022-237.022h172.578c9.455 0 17.067 7.612 17.067 17.067 0 9.421-7.612 17.067-17.067 17.067h-172.578c-111.855 0-202.889 91.034-202.889 202.889 0 111.889 91.034 202.923 202.889 202.923 18.534 0 37.478-3.174 59.597-10.001 8.226-2.458 17.135 1.502 20.651 9.421 14.916 33.758 48.196 55.569 84.753 55.569 27.068 0 47.582-12.868 60.041-23.62 4.198-3.618 9.899-5.086 15.155-3.686 5.393 1.297 9.762 5.086 11.81 10.172 31.232 77.244 104.994 127.113 187.938 127.113 111.923 0 202.957-91.034 202.957-202.889 0-2.833-0.512-5.495-0.956-8.192-0.444-2.799-0.887-5.564-1.126-8.397-0.649-7.202 3.311-13.961 9.83-16.998 62.089-28.706 102.195-91.068 102.195-158.891 0-96.734-78.677-175.411-175.377-175.411h-200.090c-9.421 0-17.067-7.646-17.067-17.067 0-9.455 7.646-17.067 17.067-17.067h200.090c115.507 0 209.51 94.003 209.51 209.545 0 76.8-42.974 147.763-110.558 184.149z" />
<glyph unicode="&#xe93f;" glyph-name="icon-64" d="M438.921 350.822c6.69 6.656 6.69 17.442 0 24.132-6.656 6.656-17.442 6.656-24.132 0l-380.655-380.689v296.721c0 9.421-7.646 17.067-17.067 17.067-4.71 0-8.977-1.911-12.083-5.018-3.072-3.072-4.983-7.339-4.983-12.049v-337.886c0-4.403 1.673-8.738 4.983-12.083 3.345-3.345 7.714-5.018 12.083-5.018h337.886c9.455 0 17.067 7.646 17.067 17.067s-7.612 17.067-17.067 17.067h-296.687l380.655 380.689zM1024 605.047v337.886c0 4.369-1.673 8.738-4.983 12.083-3.345 3.345-7.714 4.983-12.083 4.983h-337.92c-9.421 0-17.067-7.646-17.067-17.067 0.034-9.421 7.646-17.067 17.067-17.067h296.721l-380.689-380.655c-6.656-6.69-6.656-17.476 0-24.132 6.69-6.69 17.476-6.69 24.132 0l380.689 380.655v-296.687c0-9.421 7.646-17.067 17.067-17.067 4.71 0 8.977 1.911 12.083 4.983 3.072 3.072 4.983 7.373 4.983 12.083z" />
<glyph unicode="&#xe940;" glyph-name="icon-65" d="M989.867 134.042l-290.133-152.713v780.629l290.133 152.713v-780.629zM34.133 761.958l290.133 152.713v-780.629l-290.133-152.713v780.629zM358.4 915.319l307.2-153.6v-781.039l-307.2 153.6v781.039zM1024 123.733v819.2c0 5.973-3.14 11.503-8.226 14.609-5.222 3.106-11.537 3.277-16.759 0.478l-316.553-166.571-333.483 166.741c-2.355 1.161-4.881 1.707-7.441 1.707-0.068 0-0.137 0.102-0.205 0.102-0.034 0-0.034-0.034-0.068-0.034-2.697 0-5.427-0.614-7.885-1.946l-324.267-170.667c-5.598-2.935-9.114-8.738-9.114-15.087v-819.2c0-5.973 3.14-11.537 8.26-14.609 5.086-3.106 11.469-3.243 16.759-0.478l316.518 166.605 333.483-166.775c2.423-1.195 5.052-1.809 7.646-1.809 2.731 0 5.461 0.683 7.919 1.98l324.267 170.667c5.666 2.935 9.148 8.738 9.148 15.087z" />
<glyph unicode="&#xe941;" glyph-name="icon-66" d="M849.579 88.474c-168.994-133.769-404.241-132.847-572.075 2.185-7.339 5.905-8.499 16.657-2.628 24.030 5.905 7.27 16.657 8.465 23.996 2.594 155.341-125.030 373.111-125.918 529.51-2.048 156.262 123.904 205.449 336.111 119.535 516.062-85.948 180.087-282.010 275.012-476.57 231.185-194.458-43.964-330.513-214.084-330.854-413.628v-72.158l77.619 77.517c3.311 3.345 7.68 4.983 12.049 4.983s8.738-1.638 12.049-5.018c6.656-6.656 6.656-17.442 0-24.132l-106.701-106.53c-3.106-3.106-7.339-5.052-12.083-5.052s-8.977 1.911-12.083 5.018c0 0 0 0-0.034 0l-106.325 106.598c-6.656 6.69-6.656 17.476 0.034 24.132 6.622 6.656 17.442 6.69 24.098-0.034l77.244-77.414v72.124c0.375 215.62 147.388 399.394 357.478 446.839 34.338 7.782 68.71 11.537 102.571 11.537 173.67-0.034 334.609-98.509 412.297-261.222 92.809-194.423 39.697-423.697-129.126-557.568z" />
<glyph unicode="&#xe942;" glyph-name="icon-67" d="M174.421 88.474c168.994-133.769 404.241-132.847 572.075 2.185 7.339 5.905 8.499 16.657 2.628 24.030-5.905 7.27-16.657 8.465-23.996 2.594-155.341-125.030-373.111-125.918-529.51-2.048-156.262 123.904-205.449 336.111-119.535 516.062 85.948 180.087 282.010 275.012 476.57 231.185 194.458-43.964 330.513-214.084 330.854-413.628v-72.158l-77.619 77.517c-3.311 3.345-7.68 4.983-12.049 4.983s-8.738-1.638-12.083-5.018c-6.622-6.656-6.622-17.442 0.034-24.132l106.701-106.53c3.106-3.106 7.339-5.052 12.083-5.052s8.977 1.911 12.083 5.018c0 0 0 0 0.034 0l106.325 106.598c6.656 6.69 6.656 17.476-0.034 24.132-6.622 6.656-17.442 6.69-24.098-0.034l-77.244-77.414v72.124c-0.375 215.62-147.388 399.394-357.478 446.839-34.338 7.782-68.71 11.537-102.571 11.537-173.67-0.034-334.609-98.509-412.297-261.222-92.809-194.423-39.697-423.697 129.126-557.568z" />
<glyph unicode="&#xe943;" glyph-name="icon-68" d="M0.273 119.398c-1.673-9.318 4.54-18.159 13.824-19.797 0.99-0.171 2.014-0.239 2.97-0.239 8.158 0 15.36 5.837 16.794 14.097 11.947 67.652 49.493 126.635 105.813 166.093 116.258 81.34 276.992 52.975 358.332-63.249 56.627-80.828 147.183-124.109 239.172-124.109 57.685 0 115.985 17.067 166.741 52.599 63.727 44.646 106.325 111.445 119.808 188.109 1.638 9.318-4.574 18.159-13.824 19.763-9.079 1.843-18.125-4.54-19.763-13.824-11.947-67.686-49.527-126.703-105.813-166.127-116.224-81.34-276.958-53.043-358.332 63.215-44.681 63.761-111.479 106.325-188.143 119.808-76.732 13.619-154.010-3.584-217.771-48.265-63.761-44.646-106.325-111.445-119.808-188.075zM1023.727 776.636c1.638 9.284-4.574 18.125-13.824 19.763-9.079 1.741-18.125-4.506-19.763-13.824-11.981-67.721-49.562-126.703-105.813-166.093-116.122-81.34-276.958-53.043-358.332 63.181-92.194 131.652-274.227 163.738-405.914 71.578-63.761-44.681-106.325-111.514-119.808-188.109-1.673-9.284 4.54-18.159 13.824-19.797 0.99-0.171 2.014-0.239 2.97-0.239 8.158 0 15.36 5.803 16.794 14.097 11.947 67.652 49.493 126.635 105.813 166.093 116.19 81.374 276.992 52.975 358.332-63.215 56.627-80.862 147.183-124.143 239.172-124.143 57.685 0 115.985 17.067 166.741 52.565 63.727 44.646 106.291 111.479 119.808 188.143zM1023.727 554.769c1.638 9.284-4.574 18.125-13.824 19.763-9.079 1.707-18.125-4.54-19.763-13.824-11.947-67.686-49.562-126.669-105.813-166.127-116.122-81.34-276.958-53.043-358.332 63.215-92.194 131.618-274.227 163.738-405.914 71.578-63.761-44.681-106.325-111.479-119.808-188.109-1.673-9.318 4.54-18.159 13.824-19.797 0.99-0.171 2.014-0.239 2.97-0.239 8.158 0 15.36 5.837 16.794 14.097 11.947 67.652 49.493 126.635 105.813 166.093 116.19 81.374 276.992 52.975 358.332-63.215 56.627-80.862 147.183-124.143 239.172-124.143 57.685 0 115.985 17.067 166.741 52.599 63.727 44.646 106.291 111.445 119.808 188.109z" />
<glyph unicode="&#xe944;" glyph-name="icon-69" d="M563.2 448c0 28.262-22.938 51.2-51.2 51.2s-51.2-22.938-51.2-51.2c0-28.262 22.938-51.2 51.2-51.2s51.2 22.938 51.2 51.2zM597.333 448c0-47.070-38.263-85.333-85.333-85.333-47.036 0-85.333 38.263-85.333 85.333 0 47.036 38.298 85.333 85.333 85.333 47.070 0 85.333-38.298 85.333-85.333zM631.467 448c0 65.877-53.589 119.467-119.467 119.467s-119.467-53.589-119.467-119.467 53.589-119.467 119.467-119.467 119.467 53.589 119.467 119.467zM682.667 448c0-94.106-76.561-170.667-170.667-170.667s-170.667 76.561-170.667 170.667 76.561 170.667 170.667 170.667 170.667-76.561 170.667-170.667zM716.8 448c0 112.947-91.853 204.8-204.8 204.8s-204.8-91.853-204.8-204.8 91.853-204.8 204.8-204.8 204.8 91.853 204.8 204.8zM785.067 448c0-150.562-122.505-273.067-273.067-273.067s-273.067 122.505-273.067 273.067 122.505 273.067 273.067 273.067 273.067-122.505 273.067-273.067zM819.2 448c0 169.404-137.796 307.2-307.2 307.2-169.37 0-307.2-137.796-307.2-307.2s137.83-307.2 307.2-307.2c169.404 0 307.2 137.796 307.2 307.2zM921.6 448c0-225.86-183.74-409.6-409.6-409.6s-409.6 183.74-409.6 409.6 183.74 409.6 409.6 409.6 409.6-183.74 409.6-409.6zM955.733 448c0 244.702-199.066 443.733-443.733 443.733s-443.733-199.031-443.733-443.733c0-244.668 199.066-443.733 443.733-443.733s443.733 199.066 443.733 443.733z" />
<glyph unicode="&#xe945;" glyph-name="icon-70" d="M402.773 65.536v-112.469c0-7.202 4.54-13.619 11.298-16.043 1.911-0.683 3.857-1.024 5.769-1.024 5.018 0 9.899 2.219 13.21 6.246l92.16 112.469c5.973 7.305 4.881 18.057-2.389 24.030-7.305 5.973-18.091 4.881-24.030-2.355l-61.884-75.537v64.683c0 9.455-7.646 17.067-17.067 17.067-9.455 0-17.067-7.612-17.067-17.067zM402.773 178.005c0-35.396 46.967-62.054 109.227-62.054s109.227 26.658 109.227 62.054c0 9.421-7.612 17.067-17.067 17.067-9.421 0-17.067-7.646-17.067-17.067 0-9.83-28.501-27.921-75.093-27.921s-75.093 18.091-75.093 27.921c0 9.421-7.646 17.067-17.067 17.067-9.455 0-17.067-7.646-17.067-17.067zM310.613 313.003c0-55.535 101.308-84.548 201.387-84.548s201.387 29.013 201.387 84.548c0 9.455-7.612 17.067-17.067 17.067-9.421 0-17.067-7.612-17.067-17.067 0-20.070-66.697-50.415-167.253-50.415s-167.253 30.345-167.253 50.415c0 9.455-7.612 17.067-17.067 17.067-9.421 0-17.067-7.612-17.067-17.067zM218.453 447.966c0-70.246 147.661-107.008 293.547-107.008 145.852 0 293.547 36.762 293.547 107.008 0 9.455-7.646 17.067-17.067 17.067-9.455 0-17.067-7.612-17.067-17.067 0-29.696-101.069-72.875-259.413-72.875s-259.413 43.179-259.413 72.875c0 9.455-7.646 17.067-17.067 17.067s-17.067-7.612-17.067-17.067zM126.293 582.963c0-84.139 198.724-129.536 385.707-129.536s385.707 45.397 385.707 129.536c0 9.421-7.646 17.067-17.067 17.067-9.455 0-17.067-7.646-17.067-17.067 0-39.834-133.734-95.403-351.573-95.403-217.805 0-351.573 55.569-351.573 95.403 0 9.421-7.612 17.067-17.067 17.067-9.421 0-17.067-7.646-17.067-17.067zM989.867 717.926v0 0c-0.034 86.699-165.82 152.064-385.707 152.064-185.754 0-385.707-33.485-385.707-107.042 0-9.455 7.646-17.067 17.067-17.067s17.067 7.612 17.067 17.067c0 24.747 124.109 72.909 351.573 72.909 207.155 0 351.539-62.157 351.573-117.931-0.034-55.671-189.781-117.931-443.733-117.931-265.421 0-443.733 84.275-443.733 162.953s178.313 162.884 443.733 162.884c9.421 0 17.067 7.646 17.067 17.067 0 9.455-7.646 17.067-17.067 17.067-267.947 0-477.833-86.528-477.867-197.018v0-0.034c0.034-110.49 209.92-197.052 477.867-197.052 231.663 0 477.833 53.316 477.867 152.064v0z" />
<glyph unicode="&#xe946;" glyph-name="icon-71" d="M899.891 605.491c0-77.414-63.010-140.425-140.459-140.425h-22.426c-0.034 0-0.034 0-0.068 0h-269.892c-0.034 0-0.068 0-0.102 0h-179.917c-89.805 0-162.918 73.079-162.918 162.918s73.114 162.918 162.918 162.918c14.814 0 30.003-2.56 47.821-8.021 8.226-2.526 17.135 1.468 20.651 9.387 11.674 26.522 37.786 43.622 66.492 43.622 21.197 0 37.308-10.103 47.104-18.569 4.164-3.584 9.762-5.018 15.155-3.686 5.359 1.297 9.762 5.086 11.81 10.206 25.054 61.986 84.275 102.025 150.903 102.025 89.839 0 162.918-73.079 162.918-162.884 0-2.082-0.41-4.062-0.717-6.042-0.375-2.458-0.751-4.881-0.956-7.407-0.58-7.134 3.379-13.858 9.83-16.862 49.698-22.972 81.852-72.875 81.852-127.181zM843.742 757.897c0.171 1.673 0.273 3.345 0.273 5.086 0 108.646-88.405 197.018-197.052 197.018-73.421 0-139.435-40.209-173.5-104.004-48.811 28.297-113.493 9.694-142.234-36.693-15.599 3.891-29.935 5.734-44.203 5.734-108.646 0-197.052-88.371-197.052-197.052 0-108.646 88.405-197.052 197.052-197.052h138.752l-218.317-218.317c-4.881-4.881-6.349-12.22-3.686-18.603 2.628-6.349 8.841-10.547 15.735-10.547h93.798l-218.317-218.317c-6.656-6.656-6.656-17.476 0-24.132 3.345-3.345 7.714-5.018 12.049-5.018 4.369 0 8.738 1.673 12.083 5.018l247.467 247.467c4.881 4.881 6.349 12.22 3.686 18.603-2.628 6.349-8.841 10.513-15.77 10.513h-93.798l213.333 213.333h221.73l-218.351-218.317c-4.881-4.881-6.349-12.22-3.686-18.603 2.628-6.349 8.841-10.547 15.77-10.547h93.764l-218.317-218.317c-6.656-6.656-6.656-17.476 0-24.132 3.345-3.345 7.714-5.018 12.083-5.018s8.738 1.673 12.049 5.018l247.467 247.467c4.847 4.881 6.315 12.22 3.686 18.603-2.628 6.349-8.875 10.513-15.77 10.513h-93.764l213.333 213.333h15.394c96.29 0 174.592 78.302 174.592 174.558 0 63.317-35.055 121.856-90.283 152.405z" />
<glyph unicode="&#xe947;" glyph-name="icon-72" d="M660.617 179.917l358.4 358.4c6.656 6.656 6.656 17.476 0 24.132s-17.476 6.656-24.132 0l-358.4-358.4c-6.656-6.656-6.656-17.476 0-24.132 3.345-3.311 7.714-4.983 12.049-4.983 4.369 0 8.738 1.673 12.083 4.983zM429.329 55.467l49.254 85.333h98.543l49.254-85.333-49.254-85.333h-98.543l-49.254 85.333zM394.82 64c-3.038-5.291-3.038-11.81 0-17.067l59.153-102.4c3.038-5.291 8.67-8.533 14.78-8.533h118.238c6.076 0 11.708 3.243 14.746 8.533l59.119 102.4c3.072 5.257 3.072 11.776 0 17.067l-59.119 102.4c-3.038 5.257-8.67 8.533-14.746 8.533h-118.238c-6.11 0-11.742-3.277-14.78-8.533l-59.153-102.4zM36.796 55.467l49.254 85.333h98.543l49.289-85.333-49.289-85.333h-98.543l-49.254 85.333zM2.287 64c-3.038-5.291-3.038-11.81 0-17.067l59.153-102.4c3.038-5.291 8.67-8.533 14.78-8.533h118.238c6.076 0 11.708 3.243 14.78 8.533l59.119 102.4c3.038 5.257 3.038 11.776 0 17.067l-59.119 102.4c-3.072 5.257-8.704 8.533-14.78 8.533h-118.238c-6.11 0-11.742-3.277-14.78-8.533l-59.153-102.4zM233.882 448l-49.289-85.333h-98.543l-49.254 85.333 49.254 85.333h98.543l49.289-85.333zM268.356 456.533l-59.119 102.4c-3.072 5.257-8.704 8.533-14.78 8.533h-118.238c-6.11 0-11.742-3.277-14.78-8.533l-59.153-102.4c-3.038-5.291-3.038-11.81 0-17.067l59.153-102.4c3.038-5.291 8.67-8.533 14.78-8.533h118.238c6.076 0 11.708 3.243 14.78 8.533l59.119 102.4c3.038 5.291 3.038 11.776 0 17.067zM626.483 930.85c6.656 6.656 6.656 17.476 0 24.132s-17.476 6.656-24.132 0l-358.4-358.4c-6.656-6.656-6.656-17.476 0-24.132 3.345-3.311 7.714-4.983 12.049-4.983 4.369 0 8.738 1.638 12.083 4.983l358.4 358.4zM1019.017 930.85c6.656 6.656 6.656 17.476 0 24.132s-17.476 6.656-24.132 0l-750.933-750.933c-6.656-6.656-6.656-17.476 0-24.132 3.345-3.311 7.714-4.983 12.049-4.983 4.369 0 8.738 1.638 12.083 4.983l750.933 750.933z" />
<glyph unicode="&#xe948;" glyph-name="icon-73" d="M949.146 215.313l-107.418 61.986 92.638 53.521c8.192 4.71 10.991 15.121 6.246 23.313-4.71 8.158-15.121 10.957-23.313 6.246l-109.705-63.351-98.884 57.105 92.638 53.487c8.192 4.71 10.957 15.155 6.246 23.313-4.71 8.192-15.121 10.957-23.313 6.246l-109.705-63.351-128.444 74.172 128.444 74.138 109.705-63.317c2.697-1.57 5.632-2.287 8.533-2.287 5.837 0 11.605 3.038 14.746 8.533 4.745 8.192 1.946 18.603-6.212 23.313l-92.638 53.487 98.884 57.105 109.705-63.351c2.697-1.57 5.632-2.287 8.533-2.287 5.871 0 11.639 3.038 14.78 8.533 4.71 8.192 1.911 18.603-6.246 23.313l-92.604 53.487 107.418 62.020c8.158 4.71 10.957 15.155 6.212 23.313-4.676 8.192-15.121 10.991-23.279 6.246l-107.452-62.020v106.974c0 9.421-7.612 17.067-17.067 17.067-9.421 0-17.067-7.646-17.067-17.067v-126.703l-98.884-57.071v106.974c0 9.421-7.646 17.067-17.067 17.067-9.455 0-17.067-7.646-17.067-17.067v-126.703l-128.444-74.138v148.309l109.705 63.317c2.697 1.57 4.779 3.755 6.246 6.246 2.935 5.086 3.174 11.605-0.034 17.067-4.676 8.192-15.121 10.991-23.279 6.281l-92.638-53.487v114.176l109.705 63.351c2.697 1.57 4.813 3.721 6.246 6.246 2.935 5.086 3.174 11.605 0 17.033-4.71 8.192-15.155 10.991-23.313 6.281l-92.638-53.453v124.006c0 9.455-7.646 17.067-17.067 17.067-9.455 0.034-17.101-7.612-17.067-17.067v-124.041l-92.638 53.487c-8.192 4.71-18.603 1.911-23.313-6.246s-1.946-18.603 6.246-23.313l109.705-63.351v-114.176l-92.638 53.487c-8.192 4.71-18.603 1.911-23.313-6.246-4.745-8.192-1.946-18.603 6.246-23.313l109.705-63.351v-148.275l-128.444 74.138v126.635c0 3.14-0.819 6.042-2.287 8.533-2.935 5.086-8.465 8.567-14.78 8.533-9.421 0.034-17.067-7.612-17.067-17.067v-106.906l-98.884 57.071v126.669c0 3.106-0.853 6.007-2.287 8.533-2.935 5.086-8.465 8.533-14.78 8.499-9.455 0.034-17.067-7.612-17.067-17.033v-106.94l-107.452 61.986c-8.158 4.745-18.603 1.946-23.313-6.246-4.745-8.158-1.946-18.603 6.246-23.313l107.452-62.020-92.672-53.487c-8.158-4.71-10.957-15.155-6.246-23.313 4.745-8.158 15.155-10.957 23.313-6.246l109.739 63.351 98.884-57.105-92.638-53.487c-8.158-4.745-10.957-15.155-6.246-23.313 4.71-8.192 15.155-10.957 23.313-6.246l109.705 63.351 128.41-74.172-128.444-74.138-109.705 63.317c-8.158 4.745-18.603 1.946-23.313-6.246-4.71-8.158-1.911-18.603 6.246-23.313l92.672-53.487-98.918-57.105-109.705 63.351c-8.124 4.745-18.569 1.946-23.313-6.246-4.71-8.158-1.911-18.603 6.281-23.313l92.638-53.487-107.452-62.020c-8.158-4.71-10.957-15.121-6.246-23.313 3.174-5.461 8.909-8.533 14.814-8.533 2.901 0 5.837 0.717 8.499 2.287l107.418 62.020v-106.974c0-9.421 7.646-17.067 17.067-17.067 9.455 0 17.067 7.646 17.067 17.067v126.703l98.918 57.105v-107.008c0-9.421 7.646-17.067 17.067-17.067s17.067 7.646 17.067 17.067v126.703l128.41 74.138 0.034-148.343-109.705-63.317c-8.192-4.71-10.991-15.155-6.246-23.313 4.71-8.158 15.121-10.957 23.279-6.246l92.672 53.487v-114.21l-109.705-63.317c-8.192-4.676-10.957-15.155-6.246-23.313s15.155-10.957 23.279-6.246l92.672 53.487v-124.041c0-9.421 7.612-17.067 17.067-17.067 6.315 0 11.844 3.413 14.78 8.533 1.468 2.526 2.287 5.427 2.253 8.533v124.041l92.672-53.487c8.158-4.71 18.603-1.946 23.313 6.246 4.71 8.158 1.911 18.603-6.246 23.313l-109.739 63.317v114.21l92.672-53.487c8.158-4.71 18.603-1.911 23.313 6.246 4.71 8.192 1.911 18.603-6.246 23.313l-109.705 63.351-0.034 148.309 128.478-74.172v-126.669c0-9.455 7.646-17.101 17.067-17.067 9.421 0 17.067 7.646 17.067 17.067v106.974l98.918-57.105v-126.669c-0.068-9.421 7.612-17.067 17.033-17.067 9.455 0 17.067 7.646 17.067 17.067v106.974l107.452-62.020c8.158-4.71 18.569-1.911 23.279 6.246 3.174 5.495 2.97 11.947 0 17.067-1.434 2.526-3.55 4.71-6.246 6.246z" />
<glyph unicode="&#xe949;" glyph-name="icon-74-1" d="M697.754 593.852c0.922-50.415-17.954-98.133-53.043-134.417-35.226-36.386-82.398-56.866-132.471-57.617-50.517 0.751-97.724 21.231-132.915 57.583-35.123 36.284-53.965 84.036-53.077 135.031-0.819 50.483 18.091 98.27 53.248 134.554 35.089 36.25 82.125 56.661 132.506 57.515 50.381-0.853 97.451-21.265 132.506-57.515 35.123-36.284 54.067-84.070 53.248-135.134zM867.567 593.852c1.673 96.495-34.441 187.802-101.615 257.058-66.048 68.096-158.515 107.861-254.191 109.090-95.198-1.229-187.665-40.994-253.713-109.090-67.174-69.257-103.253-160.563-101.581-256.751 0-244.361 328.499-635.597 342.494-652.117 3.243-3.823 8.021-6.042 13.039-6.042s9.762 2.219 13.005 6.042c13.995 16.521 342.562 407.757 342.562 651.81z" />
<glyph unicode="&#xe94a;" glyph-name="icon-74-2" d="M697.754 593.852c0.922-50.381-17.954-98.133-53.043-134.417-35.226-36.386-82.398-56.866-132.471-57.617-50.517 0.751-97.724 21.231-132.915 57.583-35.123 36.284-53.965 84.036-53.077 135.031-0.819 50.483 18.091 98.27 53.248 134.554 35.089 36.25 82.125 56.661 132.506 57.515 50.381-0.853 97.451-21.265 132.506-57.515 35.123-36.284 54.067-84.070 53.248-135.134zM833.434 594.159c1.502 87.654-31.164 170.291-91.989 232.994-59.767 61.645-143.462 97.621-229.683 98.714-85.743-1.092-169.438-37.069-229.239-98.714-60.791-62.703-93.457-145.34-91.921-232.687 0-205.722 259.652-538.351 321.399-614.537 61.747 76.186 321.434 408.883 321.434 614.229z" />
<glyph unicode="&#xe94c;" glyph-name="icon-75" d="M512 311.467c-4.369 0-8.738 1.673-12.083 4.983l-238.933 238.933c-4.881 4.915-6.349 12.22-3.686 18.603 2.628 6.383 8.875 10.547 15.77 10.547h477.867c6.895 0 13.141-4.164 15.77-10.547s1.161-13.687-3.686-18.603l-238.933-238.933c-3.345-3.311-7.714-4.983-12.083-4.983z" />
<glyph unicode="&#xe94d;" glyph-name="icon-76" d="M512 584.533c-4.369 0-8.738-1.673-12.083-4.983l-238.933-238.933c-4.881-4.915-6.349-12.22-3.686-18.603 2.628-6.383 8.875-10.547 15.77-10.547h477.867c6.895 0 13.141 4.164 15.77 10.547s1.161 13.687-3.686 18.603l-238.933 238.933c-3.345 3.311-7.714 4.983-12.083 4.983z" />
<glyph unicode="&#xe94b;" glyph-name="icon-77" d="M697.754 593.852c0.887-50.415-17.954-98.133-53.077-134.417-35.191-36.386-82.398-56.866-132.437-57.617-50.551 0.751-97.758 21.231-132.915 57.583-35.123 36.284-53.999 84.036-53.111 135.031-0.785 50.483 18.125 98.27 53.282 134.554 35.055 36.25 82.091 56.661 132.471 57.515 50.381-0.853 97.451-21.265 132.506-57.515 35.157-36.284 54.067-84.070 53.282-135.134zM731.887 593.886c0.922 59.631-21.402 116.019-62.874 158.857-41.506 42.837-97.178 66.935-156.774 67.891h-0.546c-59.563-0.956-115.234-25.054-156.74-67.891-41.472-42.837-63.795-99.26-62.874-158.276-1.024-59.563 21.231-115.951 62.703-158.788 41.506-42.94 97.246-67.072 157.457-67.994 59.665 0.922 115.439 25.054 156.979 67.994 41.472 42.871 63.693 99.226 62.669 158.208z" />
</font>
</defs>
</svg>
